<svg width="154" height="48" viewBox="0 0 154 48" fill="none" xmlns="http://www.w3.org/2000/svg">
<g clip-path="url(#clip0_173_276)">
<path d="M72.5304 42.7177H62.505C61.4005 42.7177 60.5066 41.8136 60.5066 40.6967V36.6845C60.5362 36.6845 60.5657 36.6883 60.5953 36.6883H70.1884C71.448 36.6883 72.4676 35.7842 72.4676 34.6672V34.0172C72.4676 32.9003 71.448 31.9962 70.1884 31.9962H60.5953C60.5657 31.9962 60.5362 31.9962 60.5066 32V28.3614C60.5066 27.2444 61.4005 26.3404 62.505 26.3404H72.0501C73.1546 26.3404 74.0486 25.4363 74.0486 24.3194V23.5199C74.0486 22.4029 73.1546 21.4989 72.0501 21.4989H56.58C55.4755 21.4989 54.5815 22.4029 54.5815 23.5199V45.5269C54.5815 46.6439 55.4755 47.5479 56.58 47.5479H72.5267C73.6311 47.5479 74.5251 46.6439 74.5251 45.5269V44.7275C74.5251 43.6105 73.6311 42.7065 72.5267 42.7065L72.5304 42.7177Z" fill="white"/>
<path d="M95.6838 34.3834C94.8009 33.838 93.8257 33.4046 92.7582 33.0796C91.6906 32.7584 90.6231 32.4707 89.5555 32.2242C88.488 31.9776 87.5128 31.7273 86.6299 31.4808C85.7471 31.2342 85.0342 30.9055 84.4948 30.4945C83.9555 30.0836 83.6859 29.5457 83.6859 28.877C83.6859 28.3054 83.8447 27.8048 84.1624 27.3715C84.4801 26.9381 85.0083 26.5833 85.7434 26.3105C86.4785 26.0378 87.4241 25.8996 88.5766 25.8996C89.7291 25.8996 90.9075 26.0677 92.108 26.4002C92.7101 26.5683 93.3086 26.7812 93.9107 27.039C94.9302 27.4761 96.1049 26.9718 96.5223 25.9332L96.8732 25.0628C97.2832 24.0392 96.8067 22.8774 95.802 22.4404C95.0558 22.1154 94.2505 21.8501 93.3935 21.6372C91.8236 21.2524 90.2278 21.0619 88.6099 21.0619C86.183 21.0619 84.1624 21.428 82.5555 22.1602C80.9487 22.8924 79.7481 23.8711 78.9502 25.1002C78.1524 26.3292 77.7534 27.6853 77.7534 29.1758C77.7534 30.5655 78.0305 31.7049 78.5809 32.5977C79.1313 33.4906 79.8516 34.2116 80.7344 34.757C81.6173 35.3024 82.5925 35.7507 83.66 36.0981C84.7276 36.4455 85.7951 36.7369 86.8626 36.9722C87.9302 37.2076 88.9054 37.4541 89.7882 37.7156C90.6711 37.9771 91.384 38.3096 91.9233 38.7205C92.4627 39.1315 92.7323 39.6806 92.7323 40.3755C92.7323 40.9209 92.5624 41.4065 92.2188 41.8249C91.8753 42.247 91.3397 42.5758 90.6194 42.8111C89.8954 43.0465 88.946 43.166 87.7677 43.166C86.2236 43.166 84.6943 42.912 83.1872 42.4039C82.4299 42.1499 81.7281 41.8585 81.0743 41.5335C80.0547 41.0255 78.821 41.4588 78.3555 42.5048L77.964 43.3864C77.5244 44.3727 77.9307 45.527 78.8801 46.0201C79.7297 46.4609 80.7086 46.842 81.8094 47.167C83.697 47.7236 85.6732 48.0038 87.7344 48.0038C90.1872 48.0038 92.2152 47.6302 93.822 46.8868C95.4289 46.1434 96.6368 45.1646 97.4458 43.9468C98.2547 42.7327 98.6611 41.3916 98.6611 39.9272C98.6611 38.5636 98.384 37.4355 97.8336 36.5426C97.2832 35.6498 96.5629 34.9288 95.6801 34.3834H95.6838Z" fill="white"/>
<path d="M119.624 42.6429H110.704C109.599 42.6429 108.705 41.7389 108.705 40.6219V23.5274C108.705 22.4104 107.811 21.5063 106.707 21.5063H104.742C103.637 21.5063 102.743 22.4104 102.743 23.5274V45.5344C102.743 46.6513 103.637 47.5554 104.742 47.5554H119.624C120.729 47.5554 121.623 46.6513 121.623 45.5344V44.6639C121.623 43.547 120.729 42.6429 119.624 42.6429Z" fill="white"/>
<path d="M153.93 21.8836C153.93 21.6744 153.763 21.5063 153.557 21.5063H149.246C149.113 21.5063 148.991 21.5773 148.924 21.6893L139.545 37.6781L130.008 21.6856C129.941 21.5735 129.819 21.5026 129.69 21.5026H125.342C125.135 21.5026 124.969 21.6707 124.969 21.8799V47.1743C124.969 47.3835 125.135 47.5516 125.342 47.5516H130.189C130.396 47.5516 130.562 47.3835 130.562 47.1743V32.2539L137.994 44.6153C138.061 44.7274 138.182 44.7984 138.312 44.7984H140.576C140.709 44.7984 140.831 44.7274 140.897 44.6153L148.374 31.9177L148.407 47.1743C148.407 47.3835 148.573 47.5516 148.78 47.5516H153.627C153.834 47.5516 154 47.3835 154 47.1743L153.93 21.8799V21.8836Z" fill="white"/>
<path d="M50.8319 17.9501C50.8319 20.976 49.9712 23.8114 48.7412 26.5348C46.7464 30.9504 44.0129 34.8915 41.0467 38.6833C39.9385 40.1028 38.8451 41.5299 37.6446 42.8747C37.423 43.0279 37.2974 43.267 37.1274 43.465C36.9686 43.6555 36.8024 43.8311 36.5179 43.7339L34.4752 42.1276L32.0372 40.2112L23.0351 33.1357L20.8889 31.4472L20.6784 31.2828C19.6367 30.0986 18.6541 28.8658 17.8045 27.5285C17.5939 27.196 17.6974 27.054 18.0631 27.0092C18.5248 26.9532 18.9828 26.8822 19.4372 26.7925C20.1464 26.6506 20.5823 26.1014 20.5454 25.4253C20.5084 24.7566 20.0061 24.2523 19.2894 24.1925C19.0493 24.1738 18.8055 24.2074 18.5654 24.241C16.3343 24.5735 14.1069 24.9172 11.8757 25.2422C11.0815 25.358 10.6235 25.1003 10.3686 24.4615C10.0583 23.6807 10.4609 22.8588 11.3327 22.672C12.3892 22.4479 13.4678 22.3134 14.5354 22.1453C15.4293 22.0034 16.3269 21.8763 17.2208 21.7157C17.9264 21.5887 18.3881 20.9462 18.2995 20.27C18.2145 19.6013 17.5865 19.0746 16.8847 19.1455C16.1385 19.2203 15.396 19.3622 14.6536 19.4631C13.7929 19.5789 13.0799 19.0895 12.9876 18.3274C12.8952 17.5691 13.3939 16.9639 14.2509 16.8294C15.7137 16.5978 17.1802 16.3923 18.643 16.157C19.4076 16.0337 19.8916 15.6078 19.9691 15.04C20.0984 14.1061 19.4076 13.3851 18.4546 13.4934C17.8414 13.5607 17.2319 13.684 16.6187 13.7624C15.7396 13.8707 15.1449 13.4411 15.023 12.638C14.9011 11.8385 15.3517 11.2595 16.242 11.1175C17.7934 10.871 19.3449 10.6506 20.8963 10.4077C21.7718 10.2733 22.3295 9.62699 22.2335 8.88358C22.1338 8.11403 21.4061 7.64333 20.49 7.77034C19.7697 7.87121 19.0456 7.98328 18.3253 8.08414C18.2884 8.08788 18.2478 8.05799 18.1222 8.0169C18.6504 7.07177 19.3338 6.27606 20.0652 5.52519C23.4894 1.99869 27.6599 0.086011 32.5359 8.98778e-05C38.1765 -0.0970383 42.9011 2.05846 46.595 6.39934C49.4135 9.70917 50.8282 13.5794 50.8319 17.9464V17.9501Z" fill="#F78C2E"/>
<path d="M20.8927 31.4509C20.8557 31.4397 20.8151 31.4172 20.7708 31.3762C20.7412 31.35 20.7117 31.3201 20.6821 31.2865L20.8927 31.4509Z" fill="#F78C2E"/>
<path d="M4.59498 26.3554C3.59023 26.5085 2.58917 26.6729 1.58073 26.8074C0.727433 26.9232 0.16965 26.5235 0.0255864 25.739C-0.111089 24.9956 0.317407 24.3306 1.14115 24.1961C3.18759 23.8525 5.24142 23.5387 7.29894 23.2547C8.19287 23.1315 8.78759 23.591 8.89472 24.3717C9.00923 25.1973 8.56596 25.739 7.60923 25.8959C6.60817 26.064 5.59973 26.2022 4.59498 26.3554Z" fill="#F78C2E"/>
<path d="M10.8338 11.9357C11.2919 11.8647 11.7462 11.775 12.208 11.734C12.932 11.6667 13.4565 12.0702 13.608 12.7687C13.7631 13.4823 13.4196 14.1696 12.7067 14.3228C11.7167 14.5357 10.7119 14.6814 9.7035 14.7711C9.01643 14.8308 8.51406 14.2892 8.44757 13.5757C8.38108 12.8771 8.78372 12.298 9.4634 12.1598C9.91775 12.0664 10.3758 12.0179 10.8338 11.9469C10.8338 11.9469 10.8338 11.9394 10.8338 11.9357Z" fill="#F78C2E"/>
<path d="M9.07175 17.6139C9.44115 17.5579 9.81054 17.4831 10.1799 17.4495C10.9298 17.3823 11.4876 17.8119 11.6132 18.5217C11.7351 19.2202 11.4026 19.7993 10.7045 20.0047C9.89919 20.2438 9.06806 20.3596 8.23323 20.3933C7.52769 20.4231 6.95882 19.8665 6.90711 19.1792C6.85539 18.4993 7.2765 17.9277 7.96357 17.7857C8.32927 17.711 8.70236 17.6699 9.07175 17.6139Z" fill="#F78C2E"/>
<path d="M3.81904 18.4096C4.74991 18.2714 5.44806 18.7085 5.55149 19.4892C5.66231 20.3073 5.11192 20.92 4.14041 21.0619C3.18368 21.2039 2.54833 20.793 2.42643 19.9599C2.30083 19.0932 2.77735 18.5665 3.81904 18.4096Z" fill="#F78C2E"/>
<path d="M32.2848 33.8156L30.6779 17.5691C30.5856 16.6352 29.7655 15.9553 28.842 16.0487L24.5275 16.4857C23.604 16.5791 22.784 15.8992 22.6916 14.9653L22.5734 13.7811C22.4811 12.8472 23.1534 12.0178 24.0769 11.9244L41.575 10.1537C42.4985 10.0603 43.3185 10.7402 43.4109 11.6741L43.5291 12.8584C43.6214 13.7923 42.9491 14.6216 42.0257 14.715L37.7112 15.1521C36.7877 15.2455 36.1154 16.0748 36.2077 17.0087L37.8146 33.2553C37.9069 34.1892 37.2346 35.0185 36.3112 35.1119L34.1133 35.3323C33.1898 35.4257 32.3697 34.7458 32.2774 33.8119L32.2848 33.8156Z" fill="white"/>
</g>
<defs>
<clipPath id="clip0_173_276">
<rect width="154" height="48" fill="white"/>
</clipPath>
</defs>
</svg>
