<svg width="26" height="26" viewBox="0 0 26 26" fill="none" xmlns="http://www.w3.org/2000/svg">
<g clip-path="url(#clip0_324_8153)">
<path d="M9.52799 0H2.2195C0.995668 0 0 0.995668 0 2.2195V9.52799C0 10.7518 0.995668 11.7475 2.2195 11.7475H9.52799C10.7518 11.7475 11.7475 10.7518 11.7475 9.52799V2.2195C11.7475 0.995668 10.7518 0 9.52799 0Z" fill="#A7D6BC"/>
<path d="M23.7804 0H16.4719C15.2481 0 14.2524 0.995668 14.2524 2.2195V9.52799C14.2524 10.7518 15.2481 11.7475 16.4719 11.7475H23.7804C25.0043 11.7475 25.9999 10.7518 25.9999 9.52799V2.2195C25.9999 0.995668 25.0043 0 23.7804 0Z" fill="#A7D6BC"/>
<path d="M9.52799 14.2526H2.2195C0.995668 14.2526 0 15.2482 0 16.4721V23.7805C0 25.0044 0.995668 26 2.2195 26H9.52799C10.7518 26 11.7475 25.0044 11.7475 23.7805V16.4721C11.7475 15.2482 10.7518 14.2526 9.52799 14.2526Z" fill="#A7D6BC"/>
<path d="M23.7804 14.2526H16.4719C15.2481 14.2526 14.2524 15.2482 14.2524 16.4721V23.7805C14.2524 25.0044 15.2481 26 16.4719 26H23.7804C25.0043 26 25.9999 25.0044 25.9999 23.7805V16.4721C25.9999 15.2482 25.0043 14.2526 23.7804 14.2526Z" fill="#A7D6BC"/>
</g>
<defs>
<clipPath id="clip0_324_8153">
<rect width="26" height="26" fill="white"/>
</clipPath>
</defs>
</svg>
