<svg width="117" height="99" viewBox="0 0 117 99" fill="none" xmlns="http://www.w3.org/2000/svg">
<path fill-rule="evenodd" clip-rule="evenodd" d="M102.278 98.0134C110.409 98.0134 117 91.4222 117 83.2916V22.3632C104.727 8.63852 86.8839 0 67.0232 0C30.0073 0 0 30.0073 0 67.0232C0 78.204 2.73776 88.7453 7.57949 98.0134H102.278Z" fill="#279659"/>
<path d="M95.5011 36.8107C95.1046 36.3459 94.5243 36.0781 93.9135 36.0781H45.7269L45.3908 33.5084C45.0807 31.1426 43.9305 28.9803 42.1521 27.4196C40.3738 25.8594 38.0808 25 35.6956 25H29.0867C27.9343 25 27 25.9344 27 27.087C27 28.2395 27.9343 29.1739 29.0867 29.1739H35.6956C38.5453 29.1739 40.8825 31.2249 41.2527 34.0502L45.6936 68.0066L45.557 68.0184C41.8668 68.3416 39.1049 71.4921 39.2694 75.1877C39.4284 78.8863 42.451 81.7796 46.1534 81.7796H46.1642L48.333 81.7761C48.0161 82.5543 47.84 83.4043 47.84 84.295C47.84 87.9921 50.8457 91 54.5403 91C58.2348 91 61.2444 87.9921 61.2444 84.295C61.2444 83.3966 61.0654 82.5397 60.7432 81.7561L74.1213 81.7345C73.8047 82.5123 73.6287 83.3617 73.6287 84.2517C73.6287 87.949 76.6362 90.9569 80.3328 90.9569C84.0295 90.9569 87.0331 87.949 87.0331 84.2517C87.0331 80.5544 84.0274 77.5506 80.3328 77.5506C80.3317 77.5506 80.3306 77.5506 80.3295 77.5506C80.3284 77.5506 46.1576 77.6057 46.1576 77.6057H46.1533C44.6934 77.6057 43.5015 76.4656 43.4386 75.0055C43.3736 73.5467 44.464 72.3041 45.9191 72.1766L84.925 68.793C88.6901 68.4677 91.6217 65.7408 92.2199 62.0067L95.9739 38.4941C96.0702 37.8908 95.8973 37.2754 95.5009 36.8106L95.5011 36.8107ZM54.5403 86.8262C53.1469 86.8262 52.0134 85.6907 52.0134 84.2951C52.0134 82.8995 53.1469 81.7678 54.5403 81.7678C55.9336 81.7678 57.071 82.9014 57.071 84.2951C57.071 85.6888 55.9357 86.8262 54.5403 86.8262ZM82.8598 84.2517C82.8598 85.6475 81.7263 86.7829 80.333 86.7829C78.9396 86.7829 77.8022 85.6475 77.8022 84.2517C77.8022 82.8559 78.9375 81.7245 80.3328 81.7245H80.3331C81.7263 81.7245 82.8598 82.8583 82.8598 84.2517ZM57.7599 61.4838C57.6935 61.4901 57.6276 61.4932 57.5622 61.4932C56.4977 61.4932 55.5886 60.6824 55.4871 59.6013L54.178 45.668C54.0703 44.5204 54.9129 43.5028 56.0604 43.395C57.2064 43.2873 58.2252 44.13 58.3332 45.2776L59.6422 59.2109C59.7499 60.3584 58.9073 61.376 57.7599 61.4838ZM71.0907 59.4061C71.0907 60.5586 70.1564 61.493 69.004 61.493C67.8516 61.493 66.9173 60.5586 66.9173 59.4061V45.4728C66.9173 44.3202 67.8516 43.3858 69.004 43.3858C70.1564 43.3858 71.0907 44.3202 71.0907 45.4728V59.4061ZM83.8299 45.6686L82.5169 59.602C82.4151 60.6829 81.506 61.4932 80.4419 61.4932C80.3762 61.4932 80.3103 61.4901 80.2437 61.4838C79.0963 61.3757 78.2538 60.3579 78.362 59.2103L79.675 45.277C79.7829 44.1294 80.8011 43.2857 81.9482 43.3951C83.0956 43.5032 83.9381 44.5211 83.8299 45.6686Z" fill="#33C072"/>
</svg>
