<svg width="21" height="21" viewBox="0 0 21 21" fill="none" xmlns="http://www.w3.org/2000/svg">
<path d="M16.175 19.375H5.9375C3.77188 19.375 2 17.6031 2 15.4375V15.3062L2.39375 4.80625C2.45937 2.64063 4.23125 1 6.33125 1H15.7812C17.8813 1 19.6531 2.64063 19.7188 4.80625L20.1125 15.3062C20.1781 16.3562 19.7844 17.3406 19.0625 18.1281C18.3406 18.9156 17.3562 19.375 16.3062 19.375C16.3062 19.375 16.2406 19.375 16.175 19.375ZM6.33125 2.3125C4.8875 2.3125 3.77188 3.42813 3.70625 4.80625L3.3125 15.4375C3.3125 16.8813 4.49375 18.0625 5.9375 18.0625H16.3062C17.0281 18.0625 17.6844 17.7344 18.1437 17.2094C18.6031 16.6844 18.8656 16.0281 18.8656 15.3062L18.4719 4.80625C18.4062 3.3625 17.2906 2.3125 15.8469 2.3125H6.33125Z" fill="white"/>
<path d="M11.0563 8.875C8.4969 8.875 6.46252 6.84063 6.46252 4.28125C6.46252 3.8875 6.72502 3.625 7.11877 3.625C7.51252 3.625 7.77502 3.8875 7.77502 4.28125C7.77502 6.11875 9.21877 7.5625 11.0563 7.5625C12.8938 7.5625 14.3375 6.11875 14.3375 4.28125C14.3375 3.8875 14.6 3.625 14.9938 3.625C15.3875 3.625 15.65 3.8875 15.65 4.28125C15.65 6.84063 13.6156 8.875 11.0563 8.875Z" fill="white"/>
</svg>
