<svg width="117" height="99" viewBox="0 0 117 99" fill="none" xmlns="http://www.w3.org/2000/svg">
<path fill-rule="evenodd" clip-rule="evenodd" d="M102.278 98.0134C110.409 98.0134 117 91.4222 117 83.2916V22.3632C104.727 8.63852 86.8839 0 67.0232 0C30.0073 0 0 30.0073 0 67.0232C0 78.204 2.73776 88.7453 7.57949 98.0134H102.278Z" fill="#279659"/>
<path d="M36.9834 30.9835C44.0662 23.9007 53.4834 20 63.5 20C73.5166 20 82.9338 23.9007 90.0166 30.9835C97.0994 38.0664 101 47.4834 101 57.5C101 67.5166 97.0994 76.9338 90.0166 84.0165C82.9338 91.0991 73.5166 95 63.5 95C53.4834 95 44.0662 91.0993 36.9834 84.0165C29.9006 76.9336 26 67.5166 26 57.5C26 47.4834 29.9006 38.0662 36.9834 30.9835ZM63.5 87.6395C80.1191 87.6395 93.6394 74.1189 93.6394 57.5C93.6394 57.4728 93.6386 57.4458 93.6384 57.4188C93.6384 57.412 93.6394 57.4054 93.6394 57.3985C93.6394 57.3869 93.638 57.3758 93.6377 57.3644C93.5646 40.9445 80.295 27.5855 63.9096 27.3658C63.8753 27.3642 63.8413 27.3607 63.8066 27.3607C63.7858 27.3607 63.7656 27.3632 63.7449 27.3638C63.6632 27.3632 63.5817 27.3607 63.4999 27.3607C46.8808 27.3607 33.3604 40.8812 33.3604 57.5001C33.3604 74.1191 46.8809 87.6395 63.5 87.6395Z" fill="#33C072"/>
<path d="M40.6065 59.3104C41.8319 59.3104 42.8254 58.317 42.8254 57.0915C42.8254 55.866 41.8319 54.8726 40.6065 54.8726L37.9318 54.8726C39.188 42.5567 49.1762 32.7867 61.5878 31.8694L61.5878 34.1978C61.5878 35.4232 62.5813 36.4167 63.8068 36.4167C65.0323 36.4167 66.0257 35.4232 66.0257 34.1978L66.0257 31.9224C78.2537 33.1207 87.9938 42.9237 89.0958 55.1791L86.7005 55.1791C85.475 55.1791 84.4816 56.1726 84.4816 57.3981C84.4816 58.6236 85.475 59.617 86.7005 59.617L89.114 59.617C88.0937 72.0698 78.1583 82.0357 65.719 83.1046L65.719 80.2917C65.719 79.0662 64.7255 78.0728 63.5 78.0728C62.2746 78.0728 61.2811 79.0662 61.2811 80.2917L61.2811 83.1046C48.74 82.027 38.744 71.9058 37.8631 59.3104L40.6065 59.3104ZM54.5176 51.6555L61.9309 59.0689C62.1369 59.275 62.3815 59.4384 62.6508 59.55C62.92 59.6615 63.2085 59.7189 63.4999 59.7189C63.7913 59.7189 64.0798 59.6615 64.3491 59.55C64.6183 59.4384 64.8629 59.275 65.0689 59.0689L77.9731 46.1646C78.8397 45.2982 78.8397 43.8933 77.9731 43.0267C77.1067 42.1601 75.7018 42.1601 74.8352 43.0267L63.4998 54.3619L57.6553 48.5175C56.7889 47.6509 55.3839 47.6509 54.5173 48.5175C53.651 49.3839 53.651 50.789 54.5176 51.6555Z" fill="#33C072"/>
</svg>
