<svg width="24" height="22" viewBox="0 0 24 22" fill="none" xmlns="http://www.w3.org/2000/svg">
<path d="M18.6737 4.61192C19.0029 4.41309 19.1059 3.97962 18.9035 3.64435L17.8033 1.82219C17.1967 0.817581 15.9001 0.484851 14.9135 1.0806L11.3342 3.2417L12.4344 5.06385C12.6369 5.39913 12.5339 5.8326 12.2046 6.03142C11.8753 6.23025 11.4438 6.1195 11.2413 5.78422L10.1411 3.96207L1.78961 9.00465C0.80294 9.6004 0.493623 10.9027 1.1002 11.9074L2.2004 13.7295C2.40284 14.0648 2.83438 14.1755 3.16367 13.9767C4.15034 13.381 5.44691 13.7137 6.05348 14.7183C6.66006 15.7229 6.35074 17.0253 5.36407 17.621C5.03478 17.8198 4.93183 18.2533 5.13426 18.5886L6.23446 20.4107C6.84104 21.4154 8.1376 21.7481 9.12428 21.1523L17.4758 16.1098L16.3756 14.2876C16.1732 13.9523 16.2761 13.5189 16.6054 13.32C16.9347 13.1212 17.3663 13.232 17.5687 13.5672L18.6689 15.3894L22.2481 13.2283C23.2348 12.6325 23.5441 11.3302 22.9375 10.3256L21.8373 8.50342C21.6349 8.16814 21.2033 8.0574 20.8741 8.25622C19.8874 8.85197 18.5908 8.51924 17.9842 7.51462C17.3777 6.51001 17.687 5.20766 18.6737 4.61192ZM16.1018 11.1377C16.3042 11.473 16.2012 11.9064 15.8719 12.1053C15.5427 12.3041 15.1111 12.1933 14.9087 11.8581L14.5419 11.2507C14.3395 10.9154 14.4425 10.4819 14.7718 10.2831C15.101 10.0843 15.5326 10.195 15.735 10.5303L16.1018 11.1377ZM14.2681 8.10078C14.4705 8.43605 14.3676 8.86952 14.0383 9.06834C13.709 9.26717 13.2774 9.15642 13.075 8.82114L12.7083 8.21376C12.5058 7.87848 12.6088 7.44501 12.9381 7.24619C13.2674 7.04737 13.6989 7.15812 13.9014 7.49339L14.2681 8.10078Z" fill="#535469"/>
</svg>
