<svg width="62" height="62" viewBox="0 0 62 62" fill="none" xmlns="http://www.w3.org/2000/svg">
<g clip-path="url(#clip0_350_2050)">
<path d="M56.1875 54.25H5.81254C2.60735 54.25 0 51.6427 0 48.4375V38.7499C0 37.679 0.866552 36.8124 1.93751 36.8124C5.1427 36.8124 7.75005 34.2051 7.75005 30.9999C7.75005 27.7947 5.1427 25.1874 1.93751 25.1874C0.866552 25.1875 0 24.3209 0 23.25V13.5624C0 10.3572 2.60735 7.74988 5.81254 7.74988H56.1876C59.3928 7.74988 62.0001 10.3572 62.0001 13.5624V23.25C62.0001 24.3209 61.1336 25.1875 60.0626 25.1875C56.8574 25.1875 54.2501 27.7948 54.2501 31C54.2501 34.2052 56.8574 36.8126 60.0626 36.8126C61.1336 36.8126 62.0001 37.6791 62.0001 38.7501V48.4376C62 51.6427 59.3928 54.25 56.1875 54.25ZM3.87502 40.4926V48.4375C3.87502 49.5065 4.74353 50.375 5.81254 50.375H56.1876C57.2566 50.375 58.1251 49.5065 58.1251 48.4375V40.4926C53.709 39.592 50.375 35.6791 50.375 30.9999C50.375 26.3207 53.7089 22.4079 58.1251 21.5072V13.5624C58.1251 12.4934 57.2566 11.6249 56.1876 11.6249H5.81254C4.74353 11.6249 3.87502 12.4934 3.87502 13.5624V21.5074C8.29114 22.4079 11.6251 26.3208 11.6251 31C11.6251 35.6792 8.29114 39.592 3.87502 40.4926Z" fill="#535469"/>
<path d="M23.3745 45.7931L34.9954 14.8041L38.6236 16.1647L27.0028 47.1537L23.3745 45.7931Z" fill="#F78C2E"/>
<path d="M21.8343 31.6523C18.6291 31.6523 16.0217 29.0449 16.0217 25.8398C16.0217 22.6346 18.6291 20.0272 21.8343 20.0272C25.0395 20.0272 27.6468 22.6346 27.6468 25.8398C27.6468 29.0449 25.0395 31.6523 21.8343 31.6523ZM21.8343 23.9022C20.7653 23.9022 19.8968 24.7708 19.8968 25.8398C19.8968 26.9088 20.7653 27.7773 21.8343 27.7773C22.9033 27.7773 23.7718 26.9088 23.7718 25.8398C23.7718 24.7708 22.9033 23.9022 21.8343 23.9022Z" fill="#F78C2E"/>
<path d="M41.8616 43.6685C38.6564 43.6685 36.0491 41.0612 36.0491 37.856C36.0491 34.6508 38.6564 32.0435 41.8616 32.0435C45.0668 32.0435 47.6741 34.6508 47.6741 37.856C47.6741 41.0612 45.0668 43.6685 41.8616 43.6685ZM41.8616 35.9185C40.7926 35.9185 39.9241 36.787 39.9241 37.856C39.9241 38.925 40.7926 39.7935 41.8616 39.7935C42.9306 39.7935 43.7991 38.925 43.7991 37.856C43.7991 36.787 42.9306 35.9185 41.8616 35.9185Z" fill="#F78C2E"/>
</g>
<defs>
<clipPath id="clip0_350_2050">
<rect width="62" height="62" fill="white"/>
</clipPath>
</defs>
</svg>
