<svg width="29" height="29" viewBox="0 0 29 29" fill="none" xmlns="http://www.w3.org/2000/svg">
<path d="M24.1305 12.0837H4.79712V21.7504C4.79712 25.3754 6.00545 26.5837 9.63045 26.5837H19.2971C22.9221 26.5837 24.1305 25.3754 24.1305 21.7504V12.0837Z" fill="#F78C2E" stroke="white" stroke-miterlimit="10" stroke-linecap="round" stroke-linejoin="round"/>
<path d="M25.979 8.45793V9.66626C25.979 10.9954 25.3385 12.0829 23.5623 12.0829H5.4373C3.58855 12.0829 3.02063 10.9954 3.02063 9.66626V8.45793C3.02063 7.12876 3.58855 6.04126 5.4373 6.04126H23.5623C25.3385 6.04126 25.979 7.12876 25.979 8.45793Z" fill="#F78C2E" stroke="white" stroke-miterlimit="10" stroke-linecap="round" stroke-linejoin="round"/>
<path d="M14.0649 6.04117H7.3949C6.98407 5.59408 6.99615 4.90534 7.43115 4.47034L9.14699 2.7545C9.59407 2.30742 10.3312 2.30742 10.7782 2.7545L14.0649 6.04117Z" fill="#F78C2E" stroke="white" stroke-miterlimit="10" stroke-linecap="round" stroke-linejoin="round"/>
<path d="M21.5925 6.04117H14.9225L18.2092 2.7545C18.6562 2.30742 19.3933 2.30742 19.8404 2.7545L21.5562 4.47034C21.9912 4.90534 22.0033 5.59408 21.5925 6.04117Z" fill="#F78C2E" stroke="white" stroke-miterlimit="10" stroke-linecap="round" stroke-linejoin="round"/>
<path d="M10.8029 12.0837V18.2946C10.8029 19.2612 11.8662 19.8292 12.6758 19.3096L13.8116 18.5604C14.2224 18.2946 14.742 18.2946 15.1408 18.5604L16.2162 19.2854C17.0137 19.8171 18.0891 19.2492 18.0891 18.2825V12.0837H10.8029Z" fill="#F78C2E" stroke="white" stroke-miterlimit="10" stroke-linecap="round" stroke-linejoin="round"/>
</svg>
