<svg width="48" height="69" viewBox="0 0 48 69" fill="none" xmlns="http://www.w3.org/2000/svg">
<path d="M24.293 0.688477C15.5041 0.688477 8.35889 7.84121 8.35889 16.6394C8.35889 25.2697 15.1015 32.2545 23.8905 32.5568C24.1588 32.5232 24.4272 32.5232 24.6285 32.5568C24.6956 32.5568 24.7291 32.5568 24.7962 32.5568C24.8298 32.5568 24.8298 32.5568 24.8633 32.5568C33.451 32.2545 40.1936 25.2697 40.2272 16.6394C40.2272 7.84121 33.082 0.688477 24.293 0.688477Z" fill="currentColor"/>
<path d="M41.3998 41.9116C32.0046 35.6564 16.6826 35.6564 7.22007 41.9116C2.9434 44.7702 0.586182 48.6376 0.586182 52.7741C0.586182 56.9106 2.9434 60.7445 7.1864 63.5694C11.9008 66.7306 18.097 68.3112 24.2931 68.3112C30.4892 68.3112 36.6853 66.7306 41.3998 63.5694C45.6427 60.7108 48 56.877 48 52.7069C47.9663 48.5704 45.6427 44.7365 41.3998 41.9116Z" fill="currentColor"/>
</svg>
