<svg width="117" height="99" viewBox="0 0 117 99" fill="none" xmlns="http://www.w3.org/2000/svg">
<path fill-rule="evenodd" clip-rule="evenodd" d="M102.278 98.0134C110.409 98.0134 117 91.4222 117 83.2916V22.3632C104.727 8.63852 86.8839 0 67.0232 0C30.0073 0 0 30.0073 0 67.0232C0 78.204 2.73776 88.7453 7.57949 98.0134H102.278Z" fill="#279659"/>
<path d="M78.4771 44.0441C78.2875 44.017 78.0979 44.017 77.9083 44.0441C73.7104 43.9087 70.3792 40.4691 70.3792 36.2441C70.3792 31.9378 73.8729 28.417 78.2062 28.417C82.5125 28.417 86.0333 31.9107 86.0333 36.2441C86.0062 40.4691 82.675 43.9087 78.4771 44.0441Z" fill="#33C072"/>
<path d="M87.3062 62.8126C84.2728 64.8439 80.0208 65.6022 76.0937 65.0876C77.1228 62.8668 77.6645 60.4022 77.6916 57.8022C77.6916 55.0939 77.0958 52.5209 75.9583 50.273C79.9666 49.7314 84.2187 50.4897 87.2791 52.5209C91.5583 55.3376 91.5583 59.9689 87.3062 62.8126Z" fill="#33C072"/>
<path d="M48.4418 44.0441C48.6313 44.017 48.8209 44.017 49.0105 44.0441C53.2084 43.9087 56.5397 40.4691 56.5397 36.2441C56.5397 31.9107 53.0459 28.417 48.7126 28.417C44.4063 28.417 40.9126 31.9107 40.9126 36.2441C40.9126 40.4691 44.2438 43.9087 48.4418 44.0441Z" fill="#33C072"/>
<path d="M48.7395 57.8017C48.7395 60.4288 49.3083 62.9205 50.3375 65.1684C46.5187 65.5747 42.5375 64.7622 39.6125 62.8392C35.3333 59.9955 35.3333 55.3642 39.6125 52.5205C42.5104 50.5705 46.6 49.7851 50.4458 50.2184C49.3354 52.4934 48.7395 55.0663 48.7395 57.8017Z" fill="#33C072"/>
<path d="M63.825 65.9813C63.6083 65.9542 63.3646 65.9542 63.1208 65.9813C58.1375 65.8188 54.1562 61.7292 54.1562 56.6917C54.1833 51.5458 58.3271 47.375 63.5 47.375C68.6458 47.375 72.8167 51.5458 72.8167 56.6917C72.7896 61.7292 68.8354 65.8188 63.825 65.9813Z" fill="#33C072"/>
<path d="M55.023 71.5879C50.9334 74.3233 50.9334 78.8191 55.023 81.5275C59.6813 84.6421 67.3188 84.6421 71.9772 81.5275C76.0667 78.7921 76.0667 74.2962 71.9772 71.5879C67.3459 68.4733 59.7084 68.4733 55.023 71.5879Z" fill="#33C072"/>
</svg>
