<svg width="117" height="99" viewBox="0 0 117 99" fill="none" xmlns="http://www.w3.org/2000/svg">
<path fill-rule="evenodd" clip-rule="evenodd" d="M102.278 98.0134C110.409 98.0134 117 91.4222 117 83.2916V22.3632C104.727 8.63852 86.8839 0 67.0232 0C30.0073 0 0 30.0073 0 67.0232C0 78.204 2.73776 88.7453 7.57949 98.0134H102.278Z" fill="#279659"/>
<path d="M84.1249 44.2375C81.2374 31.5325 70.1549 25.8125 60.4199 25.8125C60.4199 25.8125 60.4199 25.8125 60.3924 25.8125C50.6849 25.8125 39.5749 31.505 36.6874 44.21C33.4699 58.4 42.1599 70.4175 50.0249 77.98C52.9399 80.785 56.6799 82.1875 60.4199 82.1875C64.1599 82.1875 67.8999 80.785 70.7874 77.98C78.6524 70.4175 87.3424 58.4275 84.1249 44.2375ZM60.4199 58.015C55.6349 58.015 51.7574 54.1375 51.7574 49.3525C51.7574 44.5675 55.6349 40.69 60.4199 40.69C65.2049 40.69 69.0824 44.5675 69.0824 49.3525C69.0824 54.1375 65.2049 58.015 60.4199 58.015Z" fill="#33C072"/>
</svg>
