<svg width="117" height="99" viewBox="0 0 117 99" fill="none" xmlns="http://www.w3.org/2000/svg">
<path fill-rule="evenodd" clip-rule="evenodd" d="M102.278 98.0134C110.409 98.0134 117 91.4222 117 83.2916V22.3632C104.727 8.63852 86.8839 0 67.0232 0C30.0073 0 0 30.0073 0 67.0232C0 78.204 2.73776 88.7453 7.57949 98.0134H102.278Z" fill="#279659"/>
<path d="M63.293 19.6885C54.5041 19.6885 47.3589 26.8412 47.3589 35.6394C47.3589 44.2697 54.1015 51.2545 62.8905 51.5568C63.1588 51.5232 63.4272 51.5232 63.6285 51.5568C63.6956 51.5568 63.7291 51.5568 63.7962 51.5568C63.8298 51.5568 63.8298 51.5568 63.8633 51.5568C72.451 51.2545 79.1936 44.2697 79.2272 35.6394C79.2272 26.8412 72.082 19.6885 63.293 19.6885Z" fill="#33C072"/>
<path d="M80.3998 60.9116C71.0046 54.6564 55.6826 54.6564 46.2201 60.9116C41.9434 63.7702 39.5862 67.6376 39.5862 71.7741C39.5862 75.9106 41.9434 79.7445 46.1864 82.5694C50.9008 85.7306 57.097 87.3112 63.2931 87.3112C69.4892 87.3112 75.6853 85.7306 80.3998 82.5694C84.6427 79.7108 87 75.877 87 71.7069C86.9663 67.5704 84.6427 63.7365 80.3998 60.9116Z" fill="#33C072"/>
</svg>
