<svg width="117" height="99" viewBox="0 0 117 99" fill="none" xmlns="http://www.w3.org/2000/svg">
<path fill-rule="evenodd" clip-rule="evenodd" d="M102.278 98.0134C110.409 98.0134 117 91.4222 117 83.2916V22.3632C104.727 8.63852 86.8839 0 67.0232 0C30.0073 0 0 30.0073 0 67.0232C0 78.204 2.73776 88.7453 7.57949 98.0134H102.278Z" fill="#279659"/>
<path d="M70.0996 36.1142V31.2542C70.0751 29.5865 69.4428 27.996 68.3391 26.8259C67.2353 25.6558 65.7487 25 64.1999 25C62.6512 25 61.1645 25.6558 60.0608 26.8259C58.957 27.996 58.3247 29.5865 58.3003 31.2542V36.1189C62.2017 35.3588 66.1981 35.3588 70.0996 36.1189V36.1142Z" fill="#33C072"/>
<path d="M101.267 73.7195H27.1227C26.5851 73.7085 26.0508 73.813 25.551 74.027C25.0513 74.241 24.5962 74.5601 24.2123 74.9657C23.8285 75.3713 23.5235 75.8553 23.3154 76.3893C23.1072 76.9233 23 77.4966 23 78.0758C23 78.655 23.1072 79.2283 23.3154 79.7623C23.5235 80.2963 23.8285 80.7803 24.2123 81.1859C24.5962 81.5915 25.0513 81.9106 25.551 82.1246C26.0508 82.3386 26.5851 82.4431 27.1227 82.432H101.267C101.804 82.4431 102.339 82.3386 102.838 82.1246C103.338 81.9106 103.793 81.5915 104.177 81.1859C104.561 80.7803 104.866 80.2963 105.074 79.7623C105.282 79.2283 105.389 78.655 105.389 78.0758C105.389 77.4966 105.282 76.9233 105.074 76.3893C104.866 75.8553 104.561 75.3713 104.177 74.9657C103.793 74.5601 103.338 74.241 102.838 74.027C102.339 73.813 101.804 73.7085 101.267 73.7195Z" fill="#33C072"/>
<path d="M94.8375 70.5567C94.5572 62.0058 91.206 53.9059 85.49 47.9635C79.7739 42.021 72.1394 38.7 64.1946 38.7C56.2499 38.7 48.6153 42.021 42.8993 47.9635C37.1832 53.9059 33.8321 62.0058 33.5518 70.5567H94.8375Z" fill="#33C072"/>
</svg>
