<svg width="117" height="99" viewBox="0 0 117 99" fill="none" xmlns="http://www.w3.org/2000/svg">
<path fill-rule="evenodd" clip-rule="evenodd" d="M102.278 98.0134C110.409 98.0134 117 91.4222 117 83.2916V22.3632C104.727 8.63852 86.8839 0 67.0232 0C30.0073 0 0 30.0073 0 67.0232C0 78.204 2.73776 88.7453 7.57949 98.0134H102.278Z" fill="#279659"/>
<path d="M88.9026 49.5H36.9026V75.5C36.9026 85.25 40.1526 88.5 49.9026 88.5H75.9026C85.6526 88.5 88.9026 85.25 88.9026 75.5V49.5Z" fill="#33C072" stroke="#279659" stroke-width="3" stroke-miterlimit="10" stroke-linecap="round" stroke-linejoin="round"/>
<path d="M93.875 39.75V43C93.875 46.575 92.1525 49.5 87.375 49.5H38.625C33.6525 49.5 32.125 46.575 32.125 43V39.75C32.125 36.175 33.6525 33.25 38.625 33.25H87.375C92.1525 33.25 93.875 36.175 93.875 39.75Z" fill="#33C072" stroke="#279659" stroke-width="3" stroke-miterlimit="10" stroke-linecap="round" stroke-linejoin="round"/>
<path d="M61.83 33.2502H43.89C42.785 32.0477 42.8175 30.1952 43.9875 29.0252L48.6025 24.4102C49.805 23.2077 51.7875 23.2077 52.99 24.4102L61.83 33.2502Z" fill="#33C072" stroke="#279659" stroke-width="3" stroke-miterlimit="10" stroke-linecap="round" stroke-linejoin="round"/>
<path d="M82.0775 33.2502H64.1375L72.9774 24.4102C74.1799 23.2077 76.1624 23.2077 77.3649 24.4102L81.9799 29.0252C83.15 30.1952 83.1825 32.0477 82.0775 33.2502Z" fill="#33C072" stroke="#279659" stroke-width="3" stroke-miterlimit="10" stroke-linecap="round" stroke-linejoin="round"/>
<path d="M53.0549 49.5V66.205C53.0549 68.805 55.9149 70.3325 58.0924 68.935L61.1474 66.92C62.2524 66.205 63.6499 66.205 64.7224 66.92L67.6149 68.87C69.7599 70.3 72.6524 68.7725 72.6524 66.1725V49.5H53.0549Z" fill="#33C072" stroke="#279659" stroke-width="3" stroke-miterlimit="10" stroke-linecap="round" stroke-linejoin="round"/>
</svg>
