<svg width="22" height="23" viewBox="0 0 22 23" fill="none" xmlns="http://www.w3.org/2000/svg">
<path d="M2.63091 13.5413L1.5786 4.89358C1.43251 3.693 2.09243 3.31956 3.04422 4.06483L5.66668 6.11831C6.06157 6.42752 6.63929 6.35722 6.93947 5.96343L9.77677 2.32953C10.086 1.93464 10.6637 1.86434 11.0496 2.17465L14.6846 5.02097C15.0794 5.33018 15.6572 5.25988 15.9574 4.86609L18.0108 2.24362C18.7561 1.29184 19.4863 1.49612 19.6324 2.6967L20.6858 11.3535C21.0153 14.0616 19.4297 16.0866 16.7216 16.4162L7.69468 17.5146C5.20215 17.8088 2.93408 16.0328 2.63091 13.5413Z" stroke="#747581" stroke-width="2" stroke-linecap="round" stroke-linejoin="round"/>
<path d="M5.39282 21.1838L19.3845 19.4813" stroke="#33C072" stroke-width="2" stroke-linecap="round" stroke-linejoin="round"/>
</svg>
