<svg width="117" height="99" viewBox="0 0 117 99" fill="none" xmlns="http://www.w3.org/2000/svg">
<path fill-rule="evenodd" clip-rule="evenodd" d="M102.278 98.0134C110.409 98.0134 117 91.4222 117 83.2916V22.3632C104.727 8.63852 86.8839 0 67.0232 0C30.0073 0 0 30.0073 0 67.0232C0 78.204 2.73776 88.7453 7.57949 98.0134H102.278Z" fill="#279659"/>
<path d="M91.2229 46.6334C84.8006 46.6334 82.1749 42.0905 85.3683 36.5183C87.2134 33.2886 86.1134 29.1716 82.8846 27.3261L76.7461 23.8124C73.943 22.1443 70.3238 23.1381 68.6562 25.9419L68.2659 26.6162C65.0725 32.1884 59.8211 32.1884 56.5922 26.6162L56.2019 25.9419C54.6052 23.1381 50.986 22.1443 48.1829 23.8124L42.0445 27.3261C38.8156 29.1716 37.7156 33.3241 39.5607 36.5538C42.7896 42.0905 40.1639 46.6334 33.7416 46.6334C30.0515 46.6334 27 49.6502 27 53.3768V59.6232C27 63.3144 30.016 66.3666 33.7416 66.3666C40.1639 66.3666 42.7896 70.9095 39.5607 76.4817C37.7156 79.7114 38.8156 83.8284 42.0445 85.674L48.1829 89.1876C50.986 90.8557 54.6052 89.8619 56.2729 87.0581L56.6632 86.3838C59.8566 80.8116 65.1079 80.8116 68.3368 86.3838L68.7271 87.0581C70.3948 89.8619 74.014 90.8557 76.8171 89.1876L82.9555 85.674C86.1844 83.8284 87.2844 79.6759 85.4393 76.4817C82.2104 70.9095 84.8361 66.3666 91.2584 66.3666C94.9485 66.3666 98 63.3498 98 59.6232V53.3768C97.9645 49.6856 94.9485 46.6334 91.2229 46.6334ZM62.4823 68.0347C56.1309 68.0347 50.9505 62.853 50.9505 56.5C50.9505 50.147 56.1309 44.9653 62.4823 44.9653C68.8336 44.9653 74.014 50.147 74.014 56.5C74.014 62.853 68.8336 68.0347 62.4823 68.0347Z" fill="#33C072"/>
</svg>
