<svg width="30" height="21" viewBox="0 0 30 21" fill="none" xmlns="http://www.w3.org/2000/svg">
<path d="M16.9277 3.99445V2.24777C16.9189 1.64839 16.6916 1.07675 16.295 0.656222C15.8983 0.235695 15.364 0 14.8073 0C14.2507 0 13.7164 0.235695 13.3197 0.656222C12.923 1.07675 12.6958 1.64839 12.687 2.24777V3.99615C14.0892 3.72294 15.5255 3.72294 16.9277 3.99615V3.99445Z" fill="#F78C2E"/>
<path d="M28.129 17.51H1.48172C1.28848 17.5061 1.09644 17.5436 0.91684 17.6205C0.737238 17.6974 0.573674 17.8121 0.435712 17.9579C0.29775 18.1037 0.188159 18.2776 0.113346 18.4696C0.038533 18.6615 0 18.8675 0 19.0757C0 19.2838 0.038533 19.4899 0.113346 19.6818C0.188159 19.8737 0.29775 20.0477 0.435712 20.1935C0.573674 20.3392 0.737238 20.4539 0.91684 20.5308C1.09644 20.6077 1.28848 20.6453 1.48172 20.6413H28.129C28.3222 20.6453 28.5143 20.6077 28.6939 20.5308C28.8735 20.4539 29.037 20.3392 29.175 20.1935C29.313 20.0477 29.4226 19.8737 29.4974 19.6818C29.5722 19.4899 29.6107 19.2838 29.6107 19.0757C29.6107 18.8675 29.5722 18.6615 29.4974 18.4696C29.4226 18.2776 29.313 18.1037 29.175 17.9579C29.037 17.8121 28.8735 17.6974 28.6939 17.6205C28.5143 17.5436 28.3222 17.5061 28.129 17.51Z" fill="#F78C2E"/>
<path d="M25.8183 16.3727C25.7176 13.2995 24.5132 10.3884 22.4588 8.25265C20.4045 6.11693 17.6606 4.92334 14.8053 4.92334C11.9499 4.92334 9.20607 6.11693 7.15173 8.25265C5.09739 10.3884 3.89298 13.2995 3.79224 16.3727H25.8183Z" fill="#F78C2E"/>
</svg>
