<svg width="27" height="26" viewBox="0 0 27 26" fill="none" xmlns="http://www.w3.org/2000/svg">
<path d="M26.8048 4.65271C26.6496 4.46959 26.4226 4.36408 26.1835 4.36408H7.32791L7.19639 3.35181C7.07506 2.41983 6.62498 1.56798 5.92908 0.953189C5.23322 0.338557 4.33596 0 3.40261 0H0.816535C0.36559 0 0 0.368099 0 0.82214C0 1.27618 0.36559 1.64428 0.816535 1.64428H3.40261C4.51772 1.64428 5.4323 2.45222 5.57715 3.56524L7.3149 16.942L7.26144 16.9467C5.81743 17.074 4.73672 18.3151 4.80106 19.7709C4.86328 21.2279 6.04606 22.3677 7.49481 22.3677H7.49905L8.34771 22.3664C8.2237 22.6729 8.15479 23.0077 8.15479 23.3586C8.15479 24.8151 9.33092 26 10.7766 26C12.2223 26 13.4 24.8151 13.4 23.3586C13.4 23.0047 13.3299 22.6672 13.2039 22.3585L18.4388 22.35C18.3149 22.6564 18.246 22.991 18.246 23.3416C18.246 24.7981 19.4229 25.983 20.8694 25.983C22.3159 25.983 23.4912 24.7981 23.4912 23.3416C23.4912 21.8851 22.3151 20.7017 20.8694 20.7017C20.8689 20.7017 20.8685 20.7017 20.8681 20.7017C20.8676 20.7017 7.49644 20.7235 7.49644 20.7235H7.49475C6.92351 20.7235 6.4571 20.2743 6.4325 19.6991C6.40708 19.1244 6.83374 18.6349 7.40314 18.5847L22.6663 17.2518C24.1396 17.1236 25.2868 16.0494 25.5208 14.5784L26.9898 5.31585C27.0275 5.07819 26.9598 4.83577 26.8047 4.65265L26.8048 4.65271ZM10.7766 24.3558C10.2314 24.3558 9.78786 23.9085 9.78786 23.3587C9.78786 22.8089 10.2314 22.3631 10.7766 22.3631C11.3219 22.3631 11.7669 22.8097 11.7669 23.3587C11.7669 23.9077 11.3227 24.3558 10.7766 24.3558ZM21.8582 23.3416C21.8582 23.8914 21.4147 24.3387 20.8694 24.3387C20.3242 24.3387 19.8791 23.8914 19.8791 23.3416C19.8791 22.7917 20.3234 22.346 20.8694 22.346H20.8695C21.4147 22.346 21.8582 22.7927 21.8582 23.3416ZM12.0365 14.3724C12.0105 14.3749 11.9847 14.3761 11.9591 14.3761C11.5426 14.3761 11.1869 14.0567 11.1471 13.6308L10.6349 8.14192C10.5927 7.68986 10.9225 7.28898 11.3714 7.2465C11.8199 7.20408 12.2186 7.53606 12.2608 7.98813L12.7731 13.477C12.8152 13.9291 12.4855 14.3299 12.0365 14.3724ZM17.2529 13.5539C17.2529 14.0079 16.8873 14.376 16.4364 14.376C15.9854 14.376 15.6198 14.0079 15.6198 13.5539V8.06503C15.6198 7.61098 15.9854 7.24289 16.4364 7.24289C16.8873 7.24289 17.2529 7.61098 17.2529 8.06503V13.5539ZM22.2378 8.1422L21.724 13.6311C21.6842 14.0569 21.3284 14.3761 20.9121 14.3761C20.8864 14.3761 20.8606 14.3749 20.8345 14.3724C20.3855 14.3298 20.0558 13.9289 20.0982 13.4768L20.6119 7.98791C20.6542 7.53584 21.0526 7.20348 21.5015 7.24656C21.9505 7.28914 22.2801 7.69013 22.2378 8.1422Z" fill="#F78C2E"/>
</svg>
