<svg width="32" height="32" viewBox="0 0 32 32" fill="none" xmlns="http://www.w3.org/2000/svg">
<g clip-path="url(#clip0_324_8269)">
<path d="M25.7513 7.06104H9.507C8.60986 7.06104 7.88257 7.78832 7.88257 8.68546C7.88257 9.58261 8.60986 10.3099 9.507 10.3099H25.7513C26.6484 10.3099 27.3757 9.58261 27.3757 8.68546C27.3757 7.78832 26.6484 7.06104 25.7513 7.06104Z" fill="#33C072"/>
<path d="M6.25796 8.68546C6.25613 8.25534 6.08379 7.8435 5.77875 7.54024C5.14517 6.91042 4.12188 6.91042 3.48831 7.54024C3.18322 7.8435 3.01088 8.25534 3.0091 8.68546C2.99697 8.79069 2.99697 8.89699 3.0091 9.00222C3.02748 9.10806 3.05743 9.21157 3.09844 9.31086C3.14205 9.40706 3.19368 9.49945 3.25276 9.58702C3.31109 9.67809 3.37916 9.76251 3.45582 9.8388C3.52973 9.91241 3.61141 9.97779 3.69948 10.0337C3.78502 10.096 3.87776 10.1479 3.97563 10.1881C4.0833 10.2439 4.19808 10.2849 4.31676 10.3099C4.422 10.3217 4.5283 10.3217 4.63353 10.3099C5.06248 10.3102 5.47417 10.1409 5.77875 9.8388C5.8554 9.76251 5.92348 9.67809 5.9818 9.58702C6.04089 9.49945 6.09252 9.40706 6.13612 9.31086C6.18795 9.21279 6.22882 9.10928 6.25796 9.00222C6.27009 8.89699 6.27009 8.79069 6.25796 8.68546Z" fill="#33C072"/>
<path d="M6.25789 15.9956C6.26997 15.8904 6.26997 15.7841 6.25789 15.6789C6.22982 15.574 6.1889 15.4731 6.13606 15.3784C6.09423 15.2787 6.0425 15.1835 5.98174 15.0941C5.92544 15.004 5.85711 14.922 5.77868 14.8504C5.14511 14.2206 4.12182 14.2206 3.48824 14.8504C3.18315 15.1537 3.01081 15.5655 3.00903 15.9956C3.01218 16.2097 3.05345 16.4214 3.13087 16.621C3.17158 16.7171 3.22051 16.8095 3.27706 16.8972C3.33884 16.9855 3.40961 17.0672 3.48824 17.1409C3.56002 17.2191 3.64195 17.2875 3.7319 17.3439C3.81744 17.4063 3.91013 17.4581 4.00806 17.4982C4.1071 17.5399 4.2107 17.5699 4.3167 17.5876C4.42061 17.6109 4.52696 17.6218 4.63346 17.6201C4.73869 17.6322 4.84499 17.6322 4.95023 17.6201C5.05358 17.6024 5.1545 17.5724 5.25074 17.5307C5.35131 17.4908 5.44674 17.439 5.53502 17.3764C5.62497 17.32 5.7069 17.2516 5.77868 17.1734C5.85696 17.1016 5.92529 17.0196 5.98174 16.9297C6.04418 16.8442 6.09601 16.7515 6.13606 16.6535C6.19154 16.5457 6.23251 16.431 6.25789 16.3124C6.27038 16.2072 6.27038 16.1009 6.25789 15.9956Z" fill="#33C072"/>
<path d="M6.25799 23.3055C6.27002 23.2002 6.27002 23.0939 6.25799 22.9887C6.22992 22.8813 6.189 22.7777 6.13616 22.68C6.09255 22.5839 6.04093 22.4915 5.98184 22.4039C5.92539 22.3139 5.85706 22.232 5.77878 22.1602C5.14521 21.5304 4.12192 21.5304 3.48834 22.1602C3.41006 22.232 3.34173 22.3139 3.28529 22.4039C3.2262 22.4915 3.17457 22.5839 3.13096 22.68C3.08883 22.7789 3.05883 22.8826 3.04162 22.9887C3.01873 23.0927 3.00786 23.199 3.00913 23.3055C3.01096 23.7356 3.1833 24.1474 3.48834 24.4507C3.56012 24.529 3.64205 24.5973 3.732 24.6537C3.81754 24.7161 3.91023 24.7679 4.00816 24.8081C4.1072 24.8497 4.2108 24.8797 4.3168 24.8974C4.42071 24.9207 4.52706 24.9316 4.63356 24.9299C4.73879 24.942 4.84509 24.942 4.95033 24.9299C5.05368 24.9122 5.1546 24.8822 5.25084 24.8405C5.35141 24.8006 5.44684 24.7488 5.53512 24.6862C5.62507 24.6298 5.707 24.5614 5.77878 24.4832C5.85706 24.4114 5.92539 24.3295 5.98184 24.2395C6.04433 24.1541 6.09616 24.0613 6.13616 23.9633C6.19159 23.8555 6.23256 23.7408 6.25799 23.6222C6.27048 23.517 6.27048 23.4107 6.25799 23.3055Z" fill="#33C072"/>
<path d="M27.3757 14.3711H9.507C8.60986 14.3711 7.88257 15.0984 7.88257 15.9955C7.88257 16.8927 8.60986 17.62 9.507 17.62H27.3757C28.2729 17.62 29.0001 16.8927 29.0001 15.9955C29.0001 15.0984 28.2729 14.3711 27.3757 14.3711Z" fill="#33C072"/>
<path d="M20.0658 21.6809H9.507C8.60986 21.6809 7.88257 22.4082 7.88257 23.3053C7.88257 24.2025 8.60986 24.9298 9.507 24.9298H20.0658C20.9629 24.9298 21.6902 24.2025 21.6902 23.3053C21.6902 22.4082 20.9629 21.6809 20.0658 21.6809Z" fill="#33C072"/>
</g>
<defs>
<clipPath id="clip0_324_8269">
<rect width="26" height="26" fill="white" transform="translate(3 3)"/>
</clipPath>
</defs>
</svg>
