<svg width="117" height="99" viewBox="0 0 117 99" fill="none" xmlns="http://www.w3.org/2000/svg">
<path fill-rule="evenodd" clip-rule="evenodd" d="M102.278 98.0134C110.409 98.0134 117 91.4222 117 83.2916V22.3632C104.727 8.63852 86.8839 0 67.0232 0C30.0073 0 0 30.0073 0 67.0232C0 78.204 2.73776 88.7453 7.57949 98.0134H102.278Z" fill="#279659"/>
<path d="M79 28H45C34.8 28 28 34.7945 28 44.9862V65.3697C28 75.5614 34.8 82.3559 45 82.3559V89.592C45 92.3098 48.026 93.9404 50.27 92.4117L65.4 82.3559H79C89.2 82.3559 96 75.5614 96 65.3697V44.9862C96 34.7945 89.2 28 79 28ZM62 69.3444C60.572 69.3444 59.45 68.1894 59.45 66.7965C59.45 65.4036 60.572 64.2486 62 64.2486C63.428 64.2486 64.55 65.4036 64.55 66.7965C64.55 68.1894 63.428 69.3444 62 69.3444ZM66.284 55.2459C64.958 56.1292 64.55 56.7067 64.55 57.6579V58.3713C64.55 59.7642 63.394 60.9193 62 60.9193C60.606 60.9193 59.45 59.7642 59.45 58.3713V57.6579C59.45 53.7171 62.34 51.7807 63.428 51.0333C64.686 50.184 65.094 49.6065 65.094 48.7232C65.094 47.0245 63.7 45.6317 62 45.6317C60.3 45.6317 58.906 47.0245 58.906 48.7232C58.906 50.116 57.75 51.2711 56.356 51.2711C54.962 51.2711 53.806 50.116 53.806 48.7232C53.806 44.2048 57.478 40.5358 62 40.5358C66.522 40.5358 70.194 44.2048 70.194 48.7232C70.194 52.596 67.338 54.5325 66.284 55.2459Z" fill="#33C072"/>
</svg>
