<svg width="24" height="23" viewBox="0 0 24 23" fill="none" xmlns="http://www.w3.org/2000/svg">
<path d="M17.8855 12.9797C17.4313 13.3515 17.1407 13.9183 17.1454 14.5511C17.1407 15.6348 18.058 16.5083 19.1338 16.6026L21.0266 16.7685L20.9227 17.954C20.7419 20.0161 18.9107 21.552 16.8487 21.3712L5.41252 20.3687C3.35043 20.1879 1.81448 18.3567 1.99525 16.2946L2.583 9.59037C2.76378 7.52828 4.59492 5.99232 6.65701 6.1731L18.0931 7.17568C20.1552 7.35646 21.6912 9.18761 21.5104 11.2497L21.3846 12.6842L19.3724 12.5078C18.8145 12.4589 18.2872 12.6335 17.8855 12.9797Z" stroke="#747581" stroke-width="2" stroke-linecap="round" stroke-linejoin="round"/>
<path d="M2.50451 10.4869L2.90362 5.93442C3.00755 4.74897 3.82734 3.75673 4.96977 3.43527L13.1414 1.14016C14.4177 0.780245 15.6623 1.81291 15.5462 3.13783L15.2143 6.9233" stroke="#747581" stroke-width="2" stroke-linecap="round" stroke-linejoin="round"/>
<path d="M22.3505 13.7929L22.1706 15.845C22.1226 16.3929 21.645 16.8028 21.0854 16.7738L19.1329 16.6026C18.057 16.5083 17.1398 15.6348 17.1444 14.5511C17.1397 13.9183 17.4303 13.3515 17.8845 12.9797C18.2863 12.6335 18.8135 12.4589 19.3714 12.5078L21.4434 12.6895C21.9995 12.7583 22.3986 13.245 22.3505 13.7929Z" stroke="#33C072" stroke-width="2" stroke-linecap="round" stroke-linejoin="round"/>
<path d="M7.02319 10.4714L13.9964 11.0828" stroke="#33C072" stroke-width="2" stroke-linecap="round" stroke-linejoin="round"/>
</svg>
