<svg width="117" height="99" viewBox="0 0 117 99" fill="none" xmlns="http://www.w3.org/2000/svg">
<path fill-rule="evenodd" clip-rule="evenodd" d="M102.278 98.0134C110.409 98.0134 117 91.4222 117 83.2916V22.3632C104.727 8.63852 86.8839 0 67.0232 0C30.0073 0 0 30.0073 0 67.0232C0 78.204 2.73776 88.7453 7.57949 98.0134H102.278Z" fill="#279659"/>
<path d="M85.1667 63.5C78.1683 63.5 72.5 69.1683 72.5 76.1667C72.5 78.5417 73.165 80.79 74.3367 82.69C76.5217 86.3633 80.5433 88.8333 85.1667 88.8333C89.79 88.8333 93.8117 86.3633 95.9967 82.69C97.1683 80.79 97.8333 78.5417 97.8333 76.1667C97.8333 69.1683 92.165 63.5 85.1667 63.5ZM91.7217 74.805L84.9767 81.0433C84.5333 81.455 83.9317 81.6767 83.3617 81.6767C82.76 81.6767 82.1583 81.455 81.6833 80.98L78.5483 77.845C77.63 76.9267 77.63 75.4067 78.5483 74.4883C79.4667 73.57 80.9867 73.57 81.905 74.4883L83.425 76.0083L88.4917 71.3217C89.4417 70.435 90.9617 70.4983 91.8483 71.4483C92.735 72.3983 92.6717 73.8867 91.7217 74.805Z" fill="#33C072"/>
<path d="M94.6666 39.9083V41.3333C94.6666 43.0749 93.2416 44.4999 91.4999 44.4999H34.4999C32.7583 44.4999 31.3333 43.0749 31.3333 41.3333V39.8766C31.3333 32.6249 37.1916 26.7666 44.4433 26.7666H81.5249C88.7766 26.7666 94.6666 32.6566 94.6666 39.9083Z" fill="#33C072"/>
<path d="M31.3333 52.4166V68.1233C31.3333 75.3749 37.1916 81.2333 44.4433 81.2333H64.2666C66.1032 81.2333 67.6866 79.6816 67.5283 77.8449C67.0849 72.9999 68.6366 67.7433 72.9433 63.5633C74.7166 61.8216 76.9016 60.4916 79.2766 59.7316C83.2349 58.4649 87.0666 58.6233 90.4549 59.7633C92.5132 60.4599 94.6666 58.9716 94.6666 56.7866V52.3849C94.6666 50.6433 93.2416 49.2183 91.4999 49.2183H34.4999C32.7583 49.2499 31.3333 50.6749 31.3333 52.4166ZM50.3333 70.6249H43.9999C42.7016 70.6249 41.6249 69.5483 41.6249 68.2499C41.6249 66.9516 42.7016 65.8749 43.9999 65.8749H50.3333C51.6316 65.8749 52.7083 66.9516 52.7083 68.2499C52.7083 69.5483 51.6316 70.6249 50.3333 70.6249Z" fill="#33C072"/>
</svg>
