<svg width="26" height="26" viewBox="0 0 26 26" fill="none" xmlns="http://www.w3.org/2000/svg">
<path d="M20.5833 16.25C18.1892 16.25 16.25 18.1892 16.25 20.5833C16.25 21.3958 16.4775 22.165 16.8783 22.815C17.6258 24.0717 19.0017 24.9167 20.5833 24.9167C22.165 24.9167 23.5408 24.0717 24.2883 22.815C24.6892 22.165 24.9167 21.3958 24.9167 20.5833C24.9167 18.1892 22.9775 16.25 20.5833 16.25ZM22.8258 20.1175L20.5183 22.2517C20.3667 22.3925 20.1608 22.4683 19.9658 22.4683C19.76 22.4683 19.5542 22.3925 19.3917 22.23L18.3192 21.1575C18.005 20.8433 18.005 20.3233 18.3192 20.0092C18.6333 19.695 19.1533 19.695 19.4675 20.0092L19.9875 20.5292L21.7208 18.9258C22.0458 18.6225 22.5658 18.6442 22.8692 18.9692C23.1725 19.2942 23.1508 19.8033 22.8258 20.1175Z" fill="#535469"/>
<path d="M23.8333 8.17894V8.66644C23.8333 9.26227 23.3458 9.74977 22.75 9.74977H3.24996C2.65413 9.74977 2.16663 9.26227 2.16663 8.66644V8.16811C2.16663 5.68727 4.17079 3.68311 6.65163 3.68311H19.3375C21.8183 3.68311 23.8333 5.69811 23.8333 8.17894Z" fill="#535469"/>
<path d="M2.16663 12.4584V17.8318C2.16663 20.3126 4.17079 22.3168 6.65163 22.3168H13.4333C14.0616 22.3168 14.6033 21.7859 14.5491 21.1576C14.3975 19.5001 14.9283 17.7018 16.4016 16.2718C17.0083 15.6759 17.7558 15.2209 18.5683 14.9609C19.9225 14.5276 21.2333 14.5818 22.3925 14.9718C23.0966 15.2101 23.8333 14.7009 23.8333 13.9534V12.4476C23.8333 11.8518 23.3458 11.3643 22.75 11.3643H3.24996C2.65413 11.3751 2.16663 11.8626 2.16663 12.4584ZM8.66663 18.6876H6.49996C6.05579 18.6876 5.68746 18.3193 5.68746 17.8751C5.68746 17.4309 6.05579 17.0626 6.49996 17.0626H8.66663C9.11079 17.0626 9.47913 17.4309 9.47913 17.8751C9.47913 18.3193 9.11079 18.6876 8.66663 18.6876Z" fill="#535469"/>
</svg>
