<svg width="23" height="22" viewBox="0 0 23 22" fill="none" xmlns="http://www.w3.org/2000/svg">
<g clip-path="url(#clip0_2055_1136)">
<path d="M19.3264 7.26487L13.358 2.51232C12.7625 2.0608 12.035 1.81552 11.2865 1.81388C10.5379 1.81224 9.80937 2.05434 9.21193 2.50325L3.24347 7.26487C2.80428 7.64687 2.46583 8.13018 2.25774 8.6725C2.04964 9.21483 1.97824 9.79965 2.04978 10.3758L3.19791 17.2144C3.34299 17.9727 3.74521 18.6585 4.33733 19.1571C4.92945 19.6556 5.67557 19.9368 6.45095 19.9535H16.1098C16.8854 19.929 17.6298 19.6442 18.222 19.1452C18.8143 18.6463 19.2196 17.9626 19.372 17.2053L20.5201 10.3667C20.5823 9.79255 20.5065 9.21187 20.299 8.67256C20.0914 8.13326 19.7581 7.65077 19.3264 7.26487ZM11.9638 16.3256C11.9638 16.506 11.8918 16.679 11.7636 16.8066C11.6355 16.9341 11.4616 17.0058 11.2804 17.0058C11.0991 17.0058 10.9253 16.9341 10.7971 16.8066C10.669 16.679 10.597 16.506 10.597 16.3256V13.6046C10.597 13.4242 10.669 13.2512 10.7971 13.1236C10.9253 12.9961 11.0991 12.9244 11.2804 12.9244C11.4616 12.9244 11.6355 12.9961 11.7636 13.1236C11.8918 13.2512 11.9638 13.4242 11.9638 13.6046V16.3256Z" fill="#F78C2E"/>
</g>
<defs>
<clipPath id="clip0_2055_1136">
<rect width="21.8692" height="21.7674" fill="white" transform="translate(0.345825)"/>
</clipPath>
</defs>
</svg>
