<svg width="15" height="18" viewBox="0 0 15 18" fill="none" xmlns="http://www.w3.org/2000/svg">
<path d="M14.6047 13.0491C13.0959 17.6206 8.96805 18 7.64751 18C7.45617 18 7.32443 17.9936 7.26797 17.9871C6.86962 18.0161 2.7637 18.1993 0.803274 14.3736C-0.519229 11.7133 -0.188701 8.50411 1.64704 6.18539C2.24654 5.42387 2.90328 4.71097 3.6106 4.05394C3.77998 3.89601 3.96034 3.75094 4.15011 3.61993C4.58062 3.34587 4.88645 2.90744 5.00015 2.4015C5.1068 1.84211 4.9186 1.20236 4.44496 0.504733C4.37713 0.406278 4.3689 0.277282 4.423 0.170388C4.47868 0.0655028 4.58572 0 4.70217 0H4.70844C4.74295 0 8.21839 0.109305 9.15939 3.55885C9.29035 4.06398 9.33936 4.5872 9.30368 5.10841C9.2629 6.09216 9.46051 7.6578 11.0163 8.29112C10.5866 7.63529 10.3043 6.57439 10.9724 4.98303C11.0085 4.90186 11.0751 4.83917 11.1575 4.80943C11.2394 4.77768 11.3312 4.78371 11.4084 4.8255C11.4586 4.85444 16.4083 7.58385 14.6047 13.0491Z" fill="#F78C2E"/>
</svg>
