<svg width="19" height="19" viewBox="0 0 19 19" fill="none" xmlns="http://www.w3.org/2000/svg">
<path d="M15.8096 7.9165H3.14294V14.2498C3.14294 16.6248 3.93461 17.4165 6.30961 17.4165H12.6429C15.0179 17.4165 15.8096 16.6248 15.8096 14.2498V7.9165Z" stroke="white" stroke-miterlimit="10" stroke-linecap="round" stroke-linejoin="round"/>
<path d="M17.0208 5.54183V6.3335C17.0208 7.20433 16.6012 7.91683 15.4375 7.91683H3.56246C2.35121 7.91683 1.97913 7.20433 1.97913 6.3335V5.54183C1.97913 4.671 2.35121 3.9585 3.56246 3.9585H15.4375C16.6012 3.9585 17.0208 4.671 17.0208 5.54183Z" stroke="white" stroke-miterlimit="10" stroke-linecap="round" stroke-linejoin="round"/>
<path d="M9.21503 3.95847H4.84503C4.57587 3.66555 4.58378 3.2143 4.86878 2.9293L5.99295 1.80514C6.28587 1.51222 6.76878 1.51222 7.0617 1.80514L9.21503 3.95847Z" stroke="white" stroke-miterlimit="10" stroke-linecap="round" stroke-linejoin="round"/>
<path d="M14.1471 3.95847H9.7771L11.9304 1.80514C12.2233 1.51222 12.7063 1.51222 12.9992 1.80514L14.1233 2.9293C14.4083 3.2143 14.4163 3.66555 14.1471 3.95847Z" stroke="white" stroke-miterlimit="10" stroke-linecap="round" stroke-linejoin="round"/>
<path d="M7.07751 7.9165V11.9857C7.07751 12.619 7.77418 12.9911 8.3046 12.6507L9.04877 12.1598C9.31793 11.9857 9.65835 11.9857 9.9196 12.1598L10.6242 12.6348C11.1467 12.9832 11.8513 12.6111 11.8513 11.9778V7.9165H7.07751Z" stroke="white" stroke-miterlimit="10" stroke-linecap="round" stroke-linejoin="round"/>
</svg>
