<svg width="22" height="22" viewBox="0 0 22 22" fill="none" xmlns="http://www.w3.org/2000/svg">
<path d="M10.7424 17.2637C10.5439 17.2624 10.3539 17.1829 10.2135 17.0426C10.0732 16.9022 9.99374 16.7122 9.99243 16.5137V13.5137C9.99374 13.3152 10.0732 13.1252 10.2135 12.9848C10.3539 12.8444 10.5439 12.765 10.7424 12.7637C10.9409 12.765 11.1309 12.8444 11.2713 12.9848C11.4117 13.1252 11.4911 13.3152 11.4924 13.5137V16.5137C11.4911 16.7122 11.4117 16.9022 11.2713 17.0426C11.1309 17.1829 10.9409 17.2624 10.7424 17.2637Z" fill="#535469"/>
<path d="M16.3427 21.0734H5.1427C4.24166 21.0582 3.37346 20.7326 2.68476 20.1514C1.99607 19.5702 1.52908 18.769 1.3627 17.8834L0.0327027 9.91337C-0.0519685 9.24307 0.0296287 8.56222 0.270296 7.93091C0.510963 7.29959 0.903303 6.73721 1.4127 6.29337L8.3427 0.743373C9.03359 0.219438 9.87731 -0.0633213 10.7444 -0.0615148C11.6115 -0.0597084 12.454 0.226564 13.1427 0.753373L20.0727 6.29337C20.5764 6.74167 20.9648 7.30466 21.205 7.93476C21.4452 8.56485 21.5302 9.24352 21.4527 9.91337L20.1227 17.8734C19.9475 18.7557 19.4784 19.5526 18.7918 20.1338C18.1052 20.715 17.2418 21.0462 16.3427 21.0734ZM10.7327 1.44337C10.2106 1.43489 9.70053 1.60023 9.2827 1.91337L2.3527 7.47337C2.05418 7.75173 1.82329 8.09469 1.67769 8.47601C1.5321 8.85732 1.47566 9.26689 1.5127 9.67337L2.8427 17.6334C2.95588 18.1664 3.24345 18.6465 3.65997 18.9978C4.0765 19.3492 4.59823 19.5517 5.1427 19.5734H16.3427C16.8887 19.5515 17.4116 19.3477 17.8284 18.9943C18.2452 18.641 18.5318 18.1584 18.6427 17.6234L19.9727 9.66337C20.0051 9.25728 19.9465 8.84908 19.8012 8.46849C19.6559 8.08791 19.4275 7.74453 19.1327 7.46337L12.2027 1.92337C11.7799 1.60407 11.2625 1.43514 10.7327 1.44337Z" fill="#535469"/>
</svg>
