<svg width="30" height="26" viewBox="0 0 30 26" fill="none" xmlns="http://www.w3.org/2000/svg">
<path d="M29.5906 10.4511C29.5906 12.2126 29.0896 13.8632 28.3735 15.4485C27.2123 18.019 25.621 20.3132 23.8943 22.5205C23.2492 23.3469 22.6127 24.1776 21.9138 24.9605C21.7848 25.0497 21.7117 25.1888 21.6128 25.3041C21.5203 25.415 21.4235 25.5172 21.258 25.4607L20.0688 24.5256L18.6496 23.41L13.4092 19.2911L12.1598 18.3082L12.0372 18.2125C11.4308 17.5231 10.8589 16.8055 10.3643 16.027C10.2417 15.8334 10.3019 15.7508 10.5148 15.7247C10.7836 15.6921 11.0502 15.6507 11.3147 15.5986C11.7276 15.5159 11.9813 15.1962 11.9598 14.8026C11.9383 14.4134 11.6459 14.1198 11.2287 14.085C11.0889 14.0741 10.947 14.0937 10.8072 14.1133C9.50843 14.3068 8.21177 14.5069 6.91296 14.6961C6.45063 14.7635 6.18399 14.6134 6.03561 14.2416C5.85498 13.7871 6.08937 13.3086 6.59685 13.1999C7.21185 13.0694 7.83976 12.9911 8.46121 12.8933C8.9816 12.8106 9.50413 12.7367 10.0245 12.6432C10.4352 12.5692 10.704 12.1952 10.6524 11.8016C10.603 11.4123 10.2374 11.1057 9.82883 11.147C9.39446 11.1905 8.96224 11.2731 8.53002 11.3319C8.02899 11.3993 7.61397 11.1144 7.56021 10.6708C7.50645 10.2293 7.79675 9.877 8.29563 9.79871C9.14717 9.66388 10.0009 9.54427 10.8524 9.40727C11.2975 9.33551 11.5792 9.08759 11.6244 8.75704C11.6996 8.21338 11.2975 7.79367 10.7427 7.85673C10.3858 7.89588 10.031 7.96764 9.67401 8.01331C9.16223 8.07637 8.81602 7.82629 8.74506 7.35873C8.67409 6.89335 8.93644 6.55628 9.45467 6.47364C10.3578 6.33011 11.261 6.20181 12.1641 6.06046C12.6738 5.98217 12.9985 5.60595 12.9425 5.17319C12.8845 4.72521 12.4609 4.4512 11.9276 4.52514C11.5083 4.58386 11.0868 4.6491 10.6675 4.70781C10.646 4.70999 10.6223 4.69259 10.5492 4.66867C10.8567 4.11848 11.2545 3.65527 11.6803 3.21816C13.6737 1.16528 16.1014 0.0518462 18.9399 0.00182885C22.2235 -0.0547125 24.9738 1.20007 27.1241 3.72704C28.7649 5.65379 29.5884 7.90675 29.5906 10.4489V10.4511Z" fill="#F78C2E"/>
<path d="M12.1619 18.3105C12.1404 18.304 12.1167 18.291 12.0909 18.267C12.0737 18.2518 12.0565 18.2344 12.0393 18.2148L12.1619 18.3105Z" fill="#F78C2E"/>
<path d="M2.6746 15.3439C2.0897 15.4331 1.50696 15.5287 0.919909 15.607C0.423178 15.6744 0.0984742 15.4418 0.0146104 14.9851C-0.0649527 14.5523 0.184488 14.1652 0.664017 14.0869C1.85531 13.8869 3.05091 13.7042 4.24866 13.5389C4.76904 13.4672 5.11525 13.7346 5.17761 14.1891C5.24427 14.6697 4.98623 14.9851 4.42929 15.0764C3.84654 15.1743 3.25949 15.2547 2.6746 15.3439Z" fill="#F78C2E"/>
<path d="M6.30661 6.94979C6.57326 6.90847 6.83775 6.85628 7.10655 6.83236C7.52801 6.79321 7.83336 7.02808 7.92153 7.43474C8.01184 7.8501 7.81186 8.25024 7.39684 8.3394C6.82055 8.46336 6.23565 8.54817 5.64861 8.60036C5.24864 8.63516 4.95619 8.31983 4.91749 7.90447C4.87878 7.49781 5.11317 7.16073 5.50883 7.08027C5.77333 7.0259 6.03997 6.99763 6.30661 6.95631C6.30661 6.95631 6.30661 6.95196 6.30661 6.94979Z" fill="#F78C2E"/>
<path d="M5.28091 10.2555C5.49594 10.2228 5.71098 10.1793 5.92601 10.1598C6.36254 10.1206 6.68724 10.3707 6.76035 10.7839C6.83131 11.1906 6.63778 11.5276 6.23136 11.6472C5.76259 11.7864 5.27876 11.8538 4.79278 11.8734C4.38206 11.8908 4.05091 11.5668 4.0208 11.1666C3.9907 10.7709 4.23584 10.4381 4.6358 10.3555C4.84869 10.312 5.06587 10.2881 5.28091 10.2555Z" fill="#F78C2E"/>
<path d="M2.22302 10.7188C2.76491 10.6384 3.17133 10.8928 3.23154 11.3473C3.29605 11.8236 2.97565 12.1802 2.41011 12.2629C1.85316 12.3455 1.4833 12.1063 1.41234 11.6213C1.33923 11.1168 1.61662 10.8102 2.22302 10.7188Z" fill="#F78C2E"/>
<path d="M18.7937 19.6871L17.8583 10.2294C17.8046 9.68576 17.3272 9.28997 16.7896 9.34433L14.278 9.59877C13.7404 9.65314 13.263 9.25735 13.2092 8.71368L13.1404 8.02431C13.0867 7.48064 13.478 6.99787 14.0156 6.9435L24.2019 5.91271C24.7394 5.85834 25.2168 6.25413 25.2706 6.7978L25.3394 7.48717C25.3932 8.03083 25.0018 8.51361 24.4642 8.56798L21.9526 8.82241C21.415 8.87678 21.0236 9.35956 21.0774 9.90322L22.0128 19.3609C22.0666 19.9045 21.6752 20.3873 21.1376 20.4417L19.8581 20.57C19.3206 20.6243 18.8432 20.2286 18.7894 19.6849L18.7937 19.6871Z" fill="white"/>
</svg>
