<svg width="23" height="22" viewBox="0 0 23 22" fill="none" xmlns="http://www.w3.org/2000/svg">
<g clip-path="url(#clip0_2055_1104)">
<path d="M13.6032 17.2326C13.6032 17.726 13.4563 18.2082 13.1809 18.6183C12.9056 19.0285 12.5142 19.3482 12.0563 19.537C11.5985 19.7258 11.0946 19.7751 10.6085 19.6789C10.1224 19.5827 9.67595 19.3451 9.3255 18.9963C8.97505 18.6475 8.73639 18.2031 8.6397 17.7192C8.54301 17.2354 8.59264 16.7339 8.7823 16.2782C8.97196 15.8224 9.29314 15.4329 9.70522 15.1588C10.1173 14.8847 10.6018 14.7385 11.0974 14.7385C11.4265 14.7382 11.7525 14.8026 12.0566 14.9278C12.3608 15.0531 12.6371 15.2368 12.8698 15.4685C13.1026 15.7001 13.2871 15.9752 13.413 16.2779C13.5388 16.5806 13.6035 16.905 13.6032 17.2326ZM9.95838 17.2326C9.95838 17.4569 10.0252 17.6761 10.1503 17.8625C10.2755 18.049 10.4534 18.1943 10.6615 18.2801C10.8696 18.3659 11.0987 18.3883 11.3196 18.3446C11.5406 18.3008 11.7435 18.1929 11.9028 18.0343C12.0621 17.8758 12.1706 17.6737 12.2145 17.4538C12.2585 17.2339 12.2359 17.006 12.1497 16.7988C12.0635 16.5916 11.9175 16.4146 11.7302 16.29C11.5429 16.1654 11.3227 16.0989 11.0974 16.0989C10.7953 16.0989 10.5056 16.2184 10.292 16.431C10.0784 16.6436 9.95838 16.932 9.95838 17.2326Z" fill="#535469"/>
<path d="M13.6032 4.53499C13.6032 5.02829 13.4563 5.51052 13.1809 5.92068C12.9056 6.33085 12.5142 6.65054 12.0563 6.83931C11.5985 7.02809 11.0946 7.07749 10.6085 6.98125C10.1224 6.88501 9.67595 6.64746 9.3255 6.29864C8.97505 5.94983 8.73639 5.5054 8.6397 5.02158C8.54301 4.53775 8.59264 4.03626 8.7823 3.5805C8.97196 3.12475 9.29314 2.73521 9.70522 2.46115C10.1173 2.18708 10.6018 2.0408 11.0974 2.0408C11.4265 2.04056 11.7525 2.10491 12.0566 2.23017C12.3608 2.35543 12.6371 2.53914 12.8698 2.7708C13.1026 3.00245 13.2871 3.27751 13.413 3.58022C13.5388 3.88294 13.6035 4.20738 13.6032 4.53499ZM9.95838 4.53499C9.95838 4.75922 10.0252 4.97841 10.1503 5.16485C10.2755 5.35129 10.4534 5.4966 10.6615 5.58241C10.8696 5.66822 11.0987 5.69067 11.3196 5.64692C11.5406 5.60318 11.7435 5.4952 11.9028 5.33665C12.0621 5.1781 12.1706 4.97609 12.2145 4.75617C12.2585 4.53624 12.2359 4.30829 12.1497 4.10113C12.0635 3.89397 11.9175 3.71691 11.7302 3.59233C11.5429 3.46776 11.3227 3.40127 11.0974 3.40127C10.7953 3.40127 10.5056 3.52071 10.292 3.73333C10.0784 3.94594 9.95838 4.23431 9.95838 4.53499Z" fill="#535469"/>
<path d="M13.6032 10.8838C13.6032 11.3771 13.4563 11.8594 13.1809 12.2695C12.9056 12.6797 12.5142 12.9994 12.0563 13.1882C11.5985 13.3769 11.0946 13.4263 10.6085 13.3301C10.1224 13.2339 9.67595 12.9963 9.3255 12.6475C8.97505 12.2987 8.73639 11.8543 8.6397 11.3704C8.54301 10.8866 8.59264 10.3851 8.7823 9.92935C8.97196 9.4736 9.29314 9.08406 9.70522 8.80999C10.1173 8.53593 10.6018 8.38965 11.0974 8.38965C11.4265 8.38941 11.7525 8.45376 12.0566 8.57902C12.3608 8.70428 12.6371 8.88799 12.8698 9.11965C13.1026 9.3513 13.2871 9.62635 13.413 9.92907C13.5388 10.2318 13.6035 10.5562 13.6032 10.8838ZM9.95838 10.8838C9.95838 11.1081 10.0252 11.3273 10.1503 11.5137C10.2755 11.7001 10.4534 11.8454 10.6615 11.9313C10.8696 12.0171 11.0987 12.0395 11.3196 11.9958C11.5406 11.952 11.7435 11.844 11.9028 11.6855C12.0621 11.5269 12.1706 11.3249 12.2145 11.105C12.2585 10.8851 12.2359 10.6571 12.1497 10.45C12.0635 10.2428 11.9175 10.0658 11.7302 9.94118C11.5429 9.8166 11.3227 9.75011 11.0974 9.75011C10.7953 9.75011 10.5056 9.86956 10.292 10.0822C10.0784 10.2948 9.95838 10.5832 9.95838 10.8838Z" fill="#535469"/>
</g>
<defs>
<clipPath id="clip0_2055_1104">
<rect width="21.7674" height="21.8692" fill="white" transform="translate(0.162842 21.7675) rotate(-90)"/>
</clipPath>
</defs>
</svg>
