<svg width="19" height="21" viewBox="0 0 19 21" fill="none" xmlns="http://www.w3.org/2000/svg">
<path d="M18.2548 15.4119L15.6888 12.4813C14.7724 11.4346 13.2145 11.8533 12.8479 13.2139C12.573 14.1559 11.6566 14.6793 10.8318 14.4699C8.99896 13.9466 6.52463 11.2253 6.06642 9.02733C5.79149 8.08531 6.34134 7.03866 7.16612 6.72471C8.35747 6.30605 8.72403 4.52675 7.80761 3.4801L5.24164 0.54949C4.5085 -0.183163 3.4088 -0.183163 2.76731 0.54949L1.02611 2.53812C-0.715087 4.63141 1.20939 10.1786 5.51657 15.0979C9.82374 20.0171 14.6808 22.3198 16.5136 20.2265L18.2548 18.2378C18.8963 17.4005 18.8963 16.1445 18.2548 15.4119Z" fill="#535469"/>
</svg>
