<svg width="24" height="22" viewBox="0 0 24 22" fill="none" xmlns="http://www.w3.org/2000/svg">
<path d="M7.79059 5.21525C7.60971 5.21406 7.43657 5.14201 7.30866 5.0147C7.18076 4.88739 7.10837 4.71506 7.10718 4.53501V1.81408C7.10837 1.63404 7.18076 1.46171 7.30866 1.3344C7.43657 1.20709 7.60971 1.13504 7.79059 1.13385C7.97147 1.13504 8.14461 1.20709 8.27251 1.3344C8.40042 1.46171 8.47281 1.63404 8.474 1.81408V4.53501C8.47281 4.71506 8.40042 4.88739 8.27251 5.0147C8.14461 5.14201 7.97147 5.21406 7.79059 5.21525Z" fill="#535469"/>
<path d="M15.0804 5.21525C14.8995 5.21406 14.7264 5.14201 14.5985 5.0147C14.4706 4.88739 14.3982 4.71506 14.397 4.53501V1.81408C14.3982 1.63404 14.4706 1.46171 14.5985 1.3344C14.7264 1.20709 14.8995 1.13504 15.0804 1.13385C15.2613 1.13504 15.4344 1.20709 15.5623 1.3344C15.6902 1.46171 15.7626 1.63404 15.7638 1.81408V4.53501C15.7626 4.71506 15.6902 4.88739 15.5623 5.0147C15.4344 5.14201 15.2613 5.21406 15.0804 5.21525Z" fill="#535469"/>
<path d="M8.2463 13.1511C8.12722 13.1496 8.00958 13.125 7.90004 13.0785C7.78823 13.0336 7.68614 12.9677 7.59934 12.8844C7.43236 12.7124 7.33781 12.4833 7.33508 12.2441C7.33652 12.1256 7.36129 12.0085 7.40798 11.8994C7.45421 11.7896 7.51892 11.6884 7.59934 11.6001C7.68645 11.5182 7.78852 11.4535 7.90004 11.4097C8.06641 11.3427 8.2487 11.325 8.42493 11.3588C8.60115 11.3926 8.7638 11.4764 8.89326 11.6001C9.05962 11.7741 9.15398 12.004 9.15751 12.2441C9.15552 12.3049 9.14943 12.3655 9.13929 12.4255C9.12937 12.4823 9.11094 12.5374 9.08462 12.5887C9.0647 12.6466 9.03712 12.7015 9.00261 12.752C8.96897 12.7995 8.93245 12.845 8.89326 12.8881C8.71854 13.0536 8.48752 13.1476 8.2463 13.1511Z" fill="#535469"/>
<path d="M11.4356 13.1522C11.3166 13.1508 11.1989 13.1261 11.0894 13.0796C10.9779 13.0358 10.8758 12.9712 10.7887 12.8892C10.6208 12.7162 10.5262 12.4857 10.5244 12.2452C10.5257 12.1264 10.5505 12.009 10.5973 11.8997C10.6435 11.7898 10.7082 11.6886 10.7887 11.6004C10.8758 11.5184 10.9779 11.4537 11.0894 11.4099C11.2553 11.3404 11.4382 11.3215 11.615 11.3554C11.7917 11.3893 11.9545 11.4745 12.0826 11.6004C12.2492 11.7745 12.3435 12.0048 12.3468 12.2452C12.3449 12.306 12.3388 12.3666 12.3286 12.4266C12.3187 12.4835 12.3003 12.5385 12.2739 12.5899C12.254 12.6477 12.2265 12.7026 12.1919 12.7531C12.1583 12.8007 12.1218 12.8461 12.0826 12.8892C11.9079 13.0548 11.6769 13.1487 11.4356 13.1522Z" fill="#535469"/>
<path d="M14.6247 13.1522C14.5056 13.1508 14.388 13.1261 14.2785 13.0796C14.1669 13.0358 14.0649 12.9712 13.9778 12.8892L13.8684 12.7531C13.8339 12.7026 13.8063 12.6477 13.7864 12.5899C13.7601 12.5385 13.7416 12.4835 13.7317 12.4266C13.7216 12.3666 13.7155 12.306 13.7135 12.2452C13.7168 12.0048 13.8112 11.7745 13.9778 11.6004C14.0649 11.5184 14.1669 11.4537 14.2785 11.4099C14.4444 11.3404 14.6273 11.3215 14.8041 11.3554C14.9808 11.3893 15.1435 11.4745 15.2717 11.6004C15.4382 11.7745 15.5326 12.0048 15.5359 12.2452C15.5339 12.306 15.5278 12.3666 15.5177 12.4266C15.5078 12.4835 15.4894 12.5385 15.463 12.5899C15.4431 12.6477 15.4155 12.7026 15.381 12.7531C15.3474 12.8007 15.3109 12.8461 15.2717 12.8892C15.097 13.0548 14.8659 13.1487 14.6247 13.1522Z" fill="#535469"/>
<path d="M8.2463 16.3255C8.12722 16.3241 8.00958 16.2994 7.90004 16.253C7.78985 16.2078 7.68817 16.1443 7.59934 16.0652C7.43234 15.8906 7.33793 15.6596 7.33508 15.4185C7.33652 15.3 7.36129 15.1829 7.40798 15.0739C7.44992 14.9621 7.51513 14.8604 7.59934 14.7755C7.77555 14.6137 8.00653 14.5238 8.2463 14.5238C8.48607 14.5238 8.71704 14.6137 8.89326 14.7755C9.0594 14.9492 9.15375 15.1788 9.15751 15.4185C9.15398 15.6586 9.05962 15.8886 8.89326 16.0625C8.71854 16.2281 8.48752 16.322 8.2463 16.3255Z" fill="#535469"/>
<path d="M11.4356 16.3255C11.1948 16.3227 10.9638 16.2298 10.7887 16.0652C10.6217 15.8906 10.5273 15.6596 10.5244 15.4185C10.5259 15.3 10.5506 15.1829 10.5973 15.0739C10.6392 14.9621 10.7045 14.8604 10.7887 14.7755C10.9649 14.6137 11.1959 14.5238 11.4356 14.5238C11.6754 14.5238 11.9064 14.6137 12.0826 14.7755C12.1669 14.8607 12.2321 14.9627 12.2739 15.0748C12.3205 15.1836 12.3453 15.3003 12.3468 15.4185C12.3433 15.6586 12.2489 15.8886 12.0826 16.0625C11.9079 16.2281 11.6769 16.322 11.4356 16.3255Z" fill="#535469"/>
<path d="M14.6247 16.3247C14.3835 16.3212 14.1525 16.2272 13.9778 16.0617C13.8934 15.9765 13.8282 15.8745 13.7864 15.7624C13.7397 15.6533 13.7149 15.5362 13.7135 15.4177C13.7151 15.2995 13.7398 15.1827 13.7864 15.074C13.8282 14.9619 13.8934 14.8598 13.9778 14.7747C14.0838 14.6701 14.2141 14.5931 14.3571 14.5504C14.5001 14.5077 14.6515 14.5006 14.7978 14.5298C14.8582 14.5382 14.9167 14.5566 14.971 14.5842C15.0291 14.604 15.0842 14.6315 15.135 14.6658C15.1827 14.6993 15.2284 14.7356 15.2717 14.7747C15.4378 14.9483 15.5322 15.1779 15.5359 15.4177C15.5324 15.6578 15.438 15.8877 15.2717 16.0617C15.097 16.2272 14.8659 16.3212 14.6247 16.3247Z" fill="#535469"/>
<path d="M19.1808 8.92452H3.69013C3.50924 8.92333 3.33611 8.85128 3.2082 8.72397C3.08029 8.59666 3.00791 8.42433 3.00671 8.24429C3.00791 8.06425 3.08029 7.89192 3.2082 7.76461C3.33611 7.63729 3.50924 7.56524 3.69013 7.56406H19.1808C19.3617 7.56524 19.5348 7.63729 19.6627 7.76461C19.7906 7.89192 19.863 8.06425 19.8642 8.24429C19.863 8.42433 19.7906 8.59666 19.6627 8.72397C19.5348 8.85128 19.3617 8.92333 19.1808 8.92452Z" fill="#535469"/>
<path d="M15.0804 20.6338H7.79063C4.4647 20.6338 2.55115 18.7292 2.55115 15.4187V7.70941C2.55115 4.39894 4.4647 2.49429 7.79063 2.49429H15.0804C18.4063 2.49429 20.3198 4.39894 20.3198 7.70941V15.4187C20.3198 18.7292 18.4063 20.6338 15.0804 20.6338ZM7.79063 3.85476C5.18456 3.85476 3.91797 5.11546 3.91797 7.70941V15.4187C3.91797 18.0127 5.18456 19.2734 7.79063 19.2734H15.0804C17.6864 19.2734 18.953 18.0127 18.953 15.4187V7.70941C18.953 5.11546 17.6864 3.85476 15.0804 3.85476H7.79063Z" fill="#535469"/>
</svg>
