<svg width="58" height="58" viewBox="0 0 58 58" fill="none" xmlns="http://www.w3.org/2000/svg">
<path fill-rule="evenodd" clip-rule="evenodd" d="M28.983 7.27124C28.5073 7.27124 28.0996 6.89748 28.0996 6.38781V0.883421C28.0996 0.407733 28.5073 0 28.983 0C29.4927 0 29.8665 0.407733 29.8665 0.883421V6.38781C29.8665 6.89748 29.4927 7.27124 28.983 7.27124Z" fill="#F78C2E"/>
<path fill-rule="evenodd" clip-rule="evenodd" d="M40.2977 10.2952C40.1278 10.2952 39.9919 10.2612 39.856 10.1932C39.4143 9.95539 39.2784 9.41175 39.5162 9.00401L42.3024 4.21315C42.5402 3.77144 43.0839 3.63553 43.4916 3.87337C43.8993 4.11122 44.0692 4.65486 43.7974 5.09657L41.0452 9.85346C40.8753 10.1593 40.6035 10.2952 40.2977 10.2952Z" fill="#F78C2E"/>
<path fill-rule="evenodd" clip-rule="evenodd" d="M48.5542 18.5859C48.2484 18.5859 47.9426 18.416 47.8067 18.1442C47.5689 17.7025 47.7048 17.1928 48.1125 16.921L52.9034 14.1688C53.3111 13.9309 53.8548 14.0669 54.0926 14.5086C54.3305 14.9163 54.1945 15.4599 53.7868 15.6978L48.996 18.45C48.86 18.5519 48.7241 18.5859 48.5542 18.5859Z" fill="#F78C2E"/>
<path fill-rule="evenodd" clip-rule="evenodd" d="M57.1166 29.8665H51.5782C51.1026 29.8665 50.6948 29.4927 50.6948 28.983C50.6948 28.5073 51.1026 28.0996 51.5782 28.0996H57.1166C57.5923 28.0996 58 28.5073 58 28.983C58 29.4927 57.5923 29.8665 57.1166 29.8665Z" fill="#F78C2E"/>
<path fill-rule="evenodd" clip-rule="evenodd" d="M53.3451 43.9333C53.1752 43.9333 53.0393 43.8993 52.9034 43.7974L48.1125 41.0452C47.7048 40.8074 47.5689 40.2637 47.8067 39.856C48.0446 39.4143 48.5882 39.2784 48.996 39.5162L53.7868 42.3024C54.1945 42.5402 54.3305 43.0839 54.0926 43.4916C53.9567 43.7634 53.6509 43.9333 53.3451 43.9333Z" fill="#F78C2E"/>
<path fill-rule="evenodd" clip-rule="evenodd" d="M43.0499 54.2285C42.7441 54.2285 42.4383 54.0586 42.3024 53.7868L39.5162 48.996C39.2784 48.5882 39.4143 48.0446 39.856 47.8067C40.2637 47.5689 40.8074 47.7048 41.0452 48.1125L43.7974 52.9034C44.0692 53.3111 43.8993 53.8548 43.4916 54.0926C43.3557 54.1945 43.1858 54.2285 43.0499 54.2285Z" fill="#F78C2E"/>
<path fill-rule="evenodd" clip-rule="evenodd" d="M28.983 58C28.5073 58 28.0996 57.5923 28.0996 57.1166V51.5782C28.0996 51.1026 28.5073 50.6948 28.983 50.6948C29.4927 50.6948 29.8665 51.1026 29.8665 51.5782V57.1166C29.8665 57.5923 29.4927 58 28.983 58Z" fill="#F78C2E"/>
<path fill-rule="evenodd" clip-rule="evenodd" d="M14.9503 54.2285C14.7804 54.2285 14.6445 54.1945 14.5086 54.0926C14.0669 53.8547 13.9309 53.3111 14.1688 52.9034L16.921 48.1125C17.1928 47.7048 17.7025 47.5349 18.1442 47.8067C18.5519 48.0445 18.6878 48.5882 18.45 48.9959L15.6978 53.7868C15.5279 54.0586 15.2561 54.2285 14.9503 54.2285Z" fill="#F78C2E"/>
<path fill-rule="evenodd" clip-rule="evenodd" d="M4.65486 43.9333C4.34906 43.9333 4.04326 43.7634 3.87337 43.4916C3.63553 43.0839 3.77144 42.5402 4.21315 42.3024L9.00401 39.5162C9.41175 39.2784 9.95539 39.4143 10.1932 39.856C10.4311 40.2637 10.2952 40.8074 9.88743 41.0452L5.09657 43.7974C4.96066 43.8993 4.79077 43.9333 4.65486 43.9333Z" fill="#F78C2E"/>
<path fill-rule="evenodd" clip-rule="evenodd" d="M6.38781 29.8665H0.883421C0.407733 29.8665 0 29.4927 0 28.983C0 28.5073 0.407733 28.0996 0.883421 28.0996H6.38781C6.89748 28.0996 7.27124 28.5073 7.27124 28.983C7.27124 29.4927 6.89748 29.8665 6.38781 29.8665Z" fill="#F78C2E"/>
<path fill-rule="evenodd" clip-rule="evenodd" d="M9.44572 18.5859C9.27584 18.5859 9.13992 18.5519 9.00401 18.45L4.21315 15.6978C3.77144 15.4599 3.63553 14.9163 3.87337 14.5086C4.11122 14.0669 4.65486 13.9309 5.09657 14.1688L9.88743 16.921C10.2952 17.1928 10.4311 17.7025 10.1932 18.1442C10.0233 18.416 9.71755 18.5859 9.44572 18.5859Z" fill="#F78C2E"/>
<path fill-rule="evenodd" clip-rule="evenodd" d="M17.7025 10.2952C17.3967 10.2952 17.0909 10.1593 16.921 9.88743L14.1688 5.09657C13.9309 4.65486 14.0669 4.11122 14.5086 3.87337C14.9163 3.63553 15.4599 3.77144 15.6978 4.21315L18.45 9.00401C18.6878 9.41175 18.5519 9.95539 18.1442 10.1932C18.0083 10.2612 17.8384 10.2952 17.7025 10.2952Z" fill="#F78C2E"/>
<path fill-rule="evenodd" clip-rule="evenodd" d="M10.1252 28.9829C10.1252 39.3801 18.5857 47.8405 28.9829 47.8405C39.3801 47.8405 47.8405 39.3801 47.8405 28.9829C47.8405 18.5857 39.3801 10.1252 28.9829 10.1252C18.5857 10.1252 10.1252 18.5857 10.1252 28.9829ZM35.0651 39.618C35.1671 39.686 35.269 39.686 35.3709 39.686C35.5408 39.686 35.7447 39.652 35.8806 39.5161C36.1184 39.3462 36.2544 39.0744 36.2544 38.7686L35.8806 32.2788L39.9919 27.2501C40.1958 27.0123 40.2637 26.7065 40.1618 26.4007C40.0599 26.1288 39.822 25.891 39.5502 25.823L33.2643 24.1921L29.7306 18.6877C29.5607 18.4499 29.2889 18.314 28.9831 18.314C28.7113 18.314 28.4055 18.4499 28.2696 18.6877L24.7359 24.1921L18.45 25.823C18.1442 25.891 17.9404 26.1288 17.8384 26.4007C17.7365 26.7065 17.8044 27.0123 17.9743 27.2501L22.1196 32.2788L21.7459 38.7686C21.7119 39.0744 21.8478 39.3462 22.0856 39.5161C22.3235 39.686 22.6633 39.7539 22.9351 39.618L28.9831 37.2735L35.0651 39.618Z" fill="#8C8D97"/>
</svg>
