<svg width="58" height="64" viewBox="0 0 58 64" fill="none" xmlns="http://www.w3.org/2000/svg">
<path d="M26.6929 40.303C26.8032 41.3694 27.7035 42.1633 28.7526 42.1633C28.8239 42.1633 28.8958 42.1597 28.9682 42.1523C30.1071 42.0345 30.935 41.0159 30.8173 39.877L29.8611 30.6254C29.7433 29.4865 28.7241 28.6597 27.5858 28.7764C26.4469 28.8941 25.619 29.9128 25.7367 31.0517L26.6929 40.303Z" fill="#747581"/>
<path d="M39.6674 42.1523C39.7398 42.1597 39.8117 42.1633 39.883 42.1633C40.9323 42.1633 41.8324 41.3694 41.9427 40.3029L42.8986 31.0514C43.0163 29.9122 42.1884 28.8935 41.0495 28.7761C39.9098 28.6597 38.8917 29.4865 38.7739 30.6251L37.818 39.8767C37.7003 41.0158 38.5282 42.0345 39.6674 42.1523Z" fill="#747581"/>
<path d="M23.6144 51.1641C20.0758 51.1641 17.197 54.0428 17.197 57.5814C17.197 61.1208 20.0758 64.0004 23.6144 64.0004C27.1529 64.0004 30.032 61.1208 30.032 57.5814C30.032 54.0428 27.1529 51.1641 23.6144 51.1641ZM23.6144 59.8537C22.3621 59.8537 21.3435 58.8342 21.3435 57.5811C21.3435 56.3289 22.3621 55.3102 23.6144 55.3102C24.8666 55.3102 25.8855 56.3289 25.8855 57.5811C25.8855 58.8342 24.8666 59.8537 23.6144 59.8537Z" fill="#747581"/>
<path d="M45.0214 51.1641C41.4828 51.1641 38.6038 54.0428 38.6038 57.5814C38.6038 61.1208 41.4825 64.0004 45.0214 64.0004C48.5602 64.0004 51.4395 61.1208 51.4395 57.5814C51.4395 54.0428 48.5602 51.1641 45.0214 51.1641ZM45.0214 59.8537C43.7691 59.8537 42.7502 58.8342 42.7502 57.5811C42.7502 56.3289 43.7691 55.3102 45.0214 55.3102C46.2739 55.3102 47.2931 56.3289 47.2931 57.5811C47.2931 58.8342 46.2741 59.8537 45.0214 59.8537Z" fill="#747581"/>
<path d="M57.4223 21.8602C57.0297 21.3524 56.4241 21.055 55.7822 21.055H14.4572L12.7218 14.3816C12.4841 13.468 11.6592 12.8303 10.7152 12.8303H2.218C1.07303 12.8303 0.144775 13.7586 0.144775 14.9036C0.144775 16.0485 1.07303 16.9768 2.218 16.9768H9.11218L10.8335 23.5962C10.8421 23.6332 10.8518 23.67 10.8623 23.7062L17.2636 48.3212C17.5013 49.2348 18.3262 49.8726 19.2702 49.8726H49.3662C50.3103 49.8726 51.1351 49.2348 51.3729 48.3212L57.7888 23.6498C57.9502 23.0292 57.8148 22.3683 57.4223 21.8602ZM47.7632 45.7266H20.8732L15.5356 25.2017H53.1011L47.7632 45.7266Z" fill="#747581"/>
<path d="M26.1789 14.6097C26.5836 15.0141 27.1141 15.2164 27.6445 15.2164C28.1753 15.2164 28.706 15.0138 29.111 14.6088C29.9204 13.7989 29.9201 12.4861 29.1102 11.6767L22.59 5.1596C21.78 4.35021 20.4676 4.35049 19.6579 5.16016C18.8485 5.9701 18.8488 7.28286 19.6584 8.09225L26.1789 14.6097Z" fill="#F78C2E"/>
<path d="M41.0008 15.216C41.5315 15.216 42.0625 15.0134 42.4675 14.6081L48.978 8.09185C49.7874 7.2819 49.7865 5.96914 48.9766 5.16002C48.1667 4.35064 46.8539 4.35147 46.0448 5.16141L39.5343 11.6777C38.7249 12.4876 38.7257 13.8004 39.5357 14.6098C39.9404 15.0139 40.4706 15.216 41.0008 15.216Z" fill="#F78C2E"/>
<path d="M34.32 13.3546H34.3205C35.4652 13.3546 36.3935 12.4267 36.3938 11.282L36.396 2.07378C36.3963 0.928806 35.4683 0.00027643 34.3233 0H34.323C33.1781 0 32.2498 0.927977 32.2495 2.07268L32.2473 11.2808C32.247 12.4258 33.175 13.3544 34.32 13.3546Z" fill="#F78C2E"/>
</svg>
