<svg width="117" height="99" viewBox="0 0 117 99" fill="none" xmlns="http://www.w3.org/2000/svg">
<path fill-rule="evenodd" clip-rule="evenodd" d="M102.278 98.0134C110.409 98.0134 117 91.4222 117 83.2916V22.3632C104.727 8.63852 86.8839 0 67.0232 0C30.0073 0 0 30.0073 0 67.0232C0 78.204 2.73776 88.7453 7.57949 98.0134H102.278Z" fill="#279659"/>
<path fill-rule="evenodd" clip-rule="evenodd" d="M33 60C33 42.9016 46.9016 29 64 29C81.0984 29 95 42.9016 95 60C95 77.0984 81.0984 91 64 91C46.9016 91 33 77.0984 33 60ZM52.6418 68.7671C54.4367 70.5745 56.2309 72.3812 58.0301 74.1804C58.4781 74.6284 59.1926 74.6284 59.6285 74.1804L81.825 52.0081C82.2731 51.5722 82.2731 50.8577 81.825 50.4097L77.2477 45.8323C76.7996 45.3964 76.0852 45.3964 75.6371 45.8323L58.8535 62.6281L52.3266 56.1011C51.8906 55.6652 51.1641 55.6652 50.7281 56.1011L46.1629 60.6663C45.727 61.1023 45.727 61.8288 46.1629 62.2648C48.3301 64.4253 50.4864 66.5967 52.6418 68.7671Z" fill="#33C072"/>
</svg>
